<?xml version="1.0" encoding="UTF-8"?>
<svg id="Layer_1" data-name="Layer 1" xmlns="http://www.w3.org/2000/svg" viewBox="0 0 448.54 78.26">
  <defs>
    <style>
      .cls-1 {
        fill: #2b3970;
      }

      .cls-2 {
        fill: #707171;
      }

      .cls-3 {
        fill: #51b748;
      }

      .cls-4 {
        fill: #54b848;
      }
    </style>
  </defs>
  <g>
    <path class="cls-4" d="m66.34,8.81s4.29,8.58,11.91,10.94c0,0-2.33,1.28-5.96,4,.99,1.49,2.1,2.79,3.21,3.9,4.06-3.15,8.53-5.93,13.44-8.13,0,0-15.86-4.63-19.04-19.52,0,0-18.8,11.51-25.56,31.28,0,0,7.25-15.54,22.01-22.46Z"/>
    <path class="cls-1" d="m31.41,24.97v40.15s0,0,0,0c2.45-3.9,5.19-7.62,8.17-11.1v-29.05h-8.18Z"/>
    <path class="cls-4" d="m20,58.44c3.14,1.53,5.94,3.16,8.18,4.56v-30.81h-8.18v26.25Z"/>
    <path class="cls-4" d="m8.59,54.11c2.8.72,5.57,1.72,8.18,2.84v-20.38h-8.18v17.54Z"/>
    <path class="cls-1" d="m0,55.28s17.8,4.7,32.85,22.98c0,0,16.95-35.98,48.52-44.57,0,0-12.77-6.04-13.46-19.03,0,0-17.41,7.2-25.77,22.98,0,0,8.2-12.15,21.59-16.02,0,0,2.48,7.82,8.59,10.83,0,0-24.03,8.67-40.22,36,0,0-17.59-13.3-32.09-13.18Z"/>
  </g>
  <g>
    <path class="cls-3" d="m101.61,19.04c1.13,2.46,2.19,4.64,3.17,6.53,1.18,2.26,2.1,4.14,2.76,5.63.66,1.5,1.42,2.97,2.3,4.44,2.33-3.86,5.03-9.39,8.1-16.6l6.71.02c.24.03.35.14.35.31s-.14.27-.41.29c-1.19.1-1.99.34-2.38.72-.4.38-.65,1.01-.74,1.9-.1.89-.19,2.54-.28,4.96-.09,2.42-.13,4.43-.13,6.03,0,3.09.02,4.89.07,5.4.04.51.24.92.57,1.22s.99.52,1.97.66c.28.04.42.15.42.32s-.17.25-.52.25l-6.56-.02h-1.72c-.38,0-.57-.09-.57-.27,0-.16.13-.25.39-.29.94-.12,1.57-.3,1.88-.52s.54-.63.69-1.21c.15-.58.23-2.02.23-4.33l.32-8.1.17-4c0-.3-.04-.46-.13-.46-.13,0-.25.09-.34.27l-3.34,6.59c-2.14,4.22-3.45,6.92-3.93,8.1l-1.05,2.55c-.33.78-.52,1.2-.59,1.27s-.15.11-.24.11c-.13,0-.25-.15-.34-.44-.2-.7-1.24-2.91-3.12-6.65-.98-2.1-2.15-4.5-3.52-7.2s-2.11-4.11-2.22-4.23-.2-.18-.25-.18c-.11,0-.17.14-.17.42l-.19,10.21-.05,3.37c0,1.79.25,2.96.73,3.51.49.55,1.19.83,2.1.83.58,0,.88.12.88.37,0,.18-.14.27-.42.27l-.35-.02-1.09.02-2.38-.02c-1.03,0-2.37.06-3.99.17-.13-.09-.2-.18-.2-.27,0-.22.2-.34.59-.35,1.12-.03,1.95-.41,2.48-1.11s.79-2.29.79-4.76l-.03-2.97.24-7.52c0-1.75-.26-2.95-.78-3.6-.52-.65-1.28-1.03-2.28-1.16-.43-.05-.64-.17-.64-.34,0-.2.16-.3.47-.3.17,0,.37,0,.61.02l5.97.13Z"/>
    <path class="cls-3" d="m132.98,29.88c1.09-.73,1.95-1.42,2.58-2.08.63-.66,1.62-1.71,2.96-3.16,1.34-1.45,2.15-2.41,2.41-2.89s.4-.82.4-1.04c0-.26-.15-.49-.45-.7s-.65-.35-1.05-.41c-.45-.07-.67-.2-.67-.39,0-.2.19-.3.56-.3.08,0,.2,0,.37-.02.42-.02,1.66-.03,3.74-.03,1.43,0,2.42.01,2.98.04.56.03.84.13.84.31,0,.19-.16.31-.47.35-1.04.15-1.95.43-2.72.85s-1.96,1.41-3.58,2.97c-1.62,1.56-3.01,3.06-4.18,4.53,1.3,0,2.39.18,3.28.55.89.37,1.62,1,2.21,1.89.59.89,1.1,2.41,1.52,4.55.74,3.59,2.08,5.46,3.99,5.62.43.03.64.15.64.34,0,.16-.1.25-.3.25l-1.55-.03c-2.29,0-3.61.02-3.94.07-.55-.73-.91-1.45-1.07-2.16-.16-.71-.38-1.95-.67-3.72-.25-1.55-.66-2.98-1.22-4.3-.57-1.31-1.45-1.97-2.66-1.97-.8,0-1.62.26-2.48.78-.85.52-1.35.91-1.48,1.16-.14.25-.2,1.74-.2,4.46,0,1.91.06,3.09.18,3.54.12.45.38.8.78,1.06.4.26.93.42,1.61.49.4.04.61.17.61.37,0,.19-.14.29-.42.29h-.2c-.31-.03-1.46-.03-3.44-.03-2.38,0-3.73.02-4.04.07-.16.02-.28.03-.35.03-.26,0-.39-.1-.39-.3,0-.18.16-.29.47-.34.59-.08,1.04-.24,1.34-.5.3-.25.49-.54.57-.88.08-.33.2-1.44.34-3.33.14-1.89.21-3.46.21-4.72,0-1.66-.02-3.07-.05-4.23-.03-1.16-.1-2.42-.2-3.78-.1-1.36-.21-2.19-.34-2.46s-.3-.49-.52-.64c-.22-.15-.75-.28-1.58-.38-.28-.03-.42-.14-.42-.3,0-.25.26-.37.78-.37l1.37-.02,5.98-.07c.3,0,.46.09.46.28,0,.11-.05.19-.15.24-.1.05-.41.11-.93.17-.53.07-.86.13-1,.19-.13.06-.27.21-.4.44-.13.23-.2.61-.2,1.14,0,1.27.06,4.11.19,8.53Z"/>
    <path class="cls-3" d="m165.07,30.44c0,.51-.03,1.26-.1,2.27-.03.49-.05.99-.05,1.5,0,.38.02,1.21.06,2.47s.12,2.05.24,2.37.38.62.78.91c.4.29.83.45,1.29.47.52.03.78.15.78.35,0,.16-.08.25-.24.28-.16.03-.75.04-1.79.04l-4.63-.02c-1.3,0-2-.02-2.08-.06-.08-.04-.13-.12-.13-.23,0-.18.21-.31.64-.4.75-.17,1.28-.43,1.58-.79.3-.36.48-1.13.55-2.32s.1-2.55.1-4.1l-.05-4.5.05-4.85c0-1.72-.12-2.81-.35-3.29-.24-.48-.7-.78-1.38-.9-.74-.14-1.11-.3-1.11-.49s.17-.29.51-.29l3.34.02,5.36-.03c3.53,0,5.9.55,7.12,1.65,1.22,1.1,1.83,2.47,1.83,4.12,0,1.96-.8,3.44-2.39,4.43s-3.99,1.48-7.2,1.48c-.77,0-1.67-.03-2.7-.1Zm0-.67c1.65.06,2.59.08,2.81.08,1.15,0,2.22-.2,3.24-.59,1.01-.39,1.75-1.1,2.22-2.12.47-1.02.7-2.03.7-3.03,0-1.27-.43-2.34-1.29-3.22-.86-.88-2.41-1.32-4.64-1.32-1.16,0-2.17.12-3.03.37-.01.4-.02.66-.02.76l.07,3.87-.07,4.12c0,.2,0,.56.02,1.08Z"/>
    <path class="cls-3" d="m192.79,29.8c1.56.68,2.64,1.38,3.26,2.12.61.74,1.06,1.88,1.35,3.42.38,2.02.9,3.38,1.57,4.08.67.7,1.55,1.07,2.64,1.11.3.02.45.13.45.33s-.17.3-.52.3c-3.15,0-5.05-.1-5.72-.31-.67-.21-1.17-1.36-1.49-3.45-.3-2.03-.62-3.52-.95-4.46-.33-.94-.86-1.66-1.58-2.16-.72-.5-1.86-.75-3.4-.75-.58,0-1.25.06-1.99.19-.06.71-.08,1.44-.08,2.2,0,2.88.04,4.75.12,5.59.08.85.32,1.46.72,1.85.4.39,1.06.59,2,.61.4.01.61.11.61.29,0,.22-.25.33-.74.33h-8.34c-.48,0-.72-.11-.72-.33,0-.2.19-.29.57-.29.85,0,1.45-.13,1.78-.39.33-.26.59-.66.78-1.2.19-.54.29-1.53.29-2.96l-.03-3.44.02-5.24c0-2.67-.06-4.44-.18-5.3-.12-.86-.33-1.45-.63-1.74-.3-.3-1.01-.53-2.11-.7-.24-.03-.35-.13-.35-.29,0-.18.24-.27.71-.27l9.98-.22c2.75,0,4.75.53,5.99,1.58,1.24,1.06,1.86,2.35,1.86,3.87,0,.97-.25,1.85-.75,2.64s-1.09,1.38-1.78,1.73c-.69.36-1.79.77-3.3,1.23Zm-6.39-.43c2.16-.04,3.78-.2,4.85-.46,1.08-.26,2-.83,2.76-1.7.76-.88,1.14-1.92,1.14-3.12,0-1.27-.42-2.38-1.26-3.32s-2.19-1.42-4.04-1.42c-1.01,0-2.13.13-3.35.4-.13,3.09-.2,5.55-.2,7.38,0,.63.04,1.37.12,2.22Z"/>
    <path class="cls-3" d="m202.28,29.93c0-1.52.46-3.18,1.38-5,.92-1.81,2.27-3.31,4.04-4.49s3.77-1.77,5.99-1.77c3.11,0,5.68,1.11,7.71,3.34s3.04,4.76,3.04,7.62c0,3.03-1.12,5.76-3.37,8.17s-4.95,3.62-8.11,3.62-5.56-1.06-7.61-3.17c-2.05-2.11-3.08-4.88-3.08-8.31Zm3.76-.55c0,1.83.28,3.71.84,5.64.56,1.93,1.44,3.33,2.64,4.2,1.2.87,2.49,1.31,3.86,1.31,2.21,0,3.98-1.08,5.31-3.23,1.33-2.15,2-4.65,2-7.48s-.68-5.15-2.04-7.23c-1.36-2.07-3.13-3.11-5.32-3.11-1.65,0-3.02.55-4.12,1.66-1.1,1.11-1.9,2.43-2.41,3.97s-.76,2.96-.76,4.27Z"/>
    <path class="cls-3" d="m236.51,19.97c-.88-.04-1.5-.07-1.85-.07-2.43,0-4.19.51-5.28,1.52-1.09,1.02-1.73,1.92-1.91,2.71-.06.28-.21.42-.45.42-.11,0-.22-.05-.32-.16.06-1.34.27-3.14.66-5.42.54-.01.88-.02,1.03-.02.88,0,2.05.05,3.52.14,1.58.09,4.01.13,7.28.13s5.53-.04,6.54-.12c.92-.09,2.18-.13,3.79-.13.13.81.22,1.65.27,2.53.07,1,.13,1.7.2,2.11.01.09.02.19.02.29,0,.27-.12.4-.35.4-.15,0-.27-.05-.36-.14-.09-.1-.31-.41-.65-.95-.58-.91-1.19-1.6-1.82-2.06-.63-.47-1.33-.77-2.11-.9-.78-.13-2.34-.22-4.71-.27-.13,1.7-.2,3.64-.2,5.81,0,7.21.15,11.47.46,12.76.31,1.29,1.41,1.94,3.31,1.94.46,0,.69.1.69.29,0,.22-.22.34-.66.34h-10.37c-.27,0-.4-.11-.4-.32s.26-.32.79-.32c.89,0,1.6-.25,2.15-.75.54-.5.86-1.18.94-2.03s.13-3.32.13-7.4c0-3.48-.12-6.92-.35-10.31Z"/>
    <path class="cls-3" d="m259.41,18.61h.78c1.25,2.57,2.99,6.97,5.19,13.2,1.42,3.99,2.4,6.44,2.93,7.34s1.38,1.41,2.55,1.51c.37.03.56.16.56.37,0,.16-.1.24-.29.24l-.24-.02c-1.03-.09-2.35-.13-3.94-.13-2.45,0-4.02.04-4.72.12-.35,0-.52-.1-.52-.3,0-.15.13-.24.39-.27.95-.09,1.61-.25,1.98-.49.37-.24.55-.61.55-1.11s-.34-1.69-1.03-3.62l-.99-2.9c-.58,0-3.2.03-7.84.1-1.17,3.11-1.76,5.08-1.76,5.89,0,.69.29,1.2.87,1.53.58.33,1.15.52,1.71.55.42.03.62.16.62.38,0,.09-.07.17-.2.25-1.8-.08-2.88-.12-3.25-.12-1.89,0-3.16.02-3.81.07-.36,0-.54-.1-.54-.3,0-.18.16-.29.47-.34,1.29-.17,2.28-1.05,2.97-2.63.69-1.58,1.75-4.43,3.21-8.54,1.33-3.74,2.78-7.33,4.35-10.75Zm-.67,3.67c-1.05,2.14-2.27,5.24-3.66,9.3,1.16-.06,1.99-.08,2.49-.08l4.74.08c-.42-1.17-1-2.72-1.75-4.65-.92-2.3-1.53-3.85-1.82-4.65Z"/>
    <path class="cls-3" d="m285.34,28.12c.55-.66,1.3-1.67,2.24-3.01.94-1.34,1.51-2.21,1.69-2.59s.27-.73.27-1.03c0-.49-.22-.87-.65-1.14-.43-.26-.9-.41-1.41-.45-.48-.03-.72-.16-.72-.37,0-.19.35-.29,1.04-.29h7.06c.47,0,.76.02.87.05.11.03.16.12.16.25,0,.19-.21.3-.64.32-1.03.05-1.99.39-2.87,1.05-.88.65-2.12,2.05-3.7,4.19-1.58,2.14-2.47,3.39-2.65,3.75,3.27,4.89,5.58,8.06,6.93,9.51,1.35,1.45,2.59,2.2,3.72,2.24.4.02.61.15.61.37,0,.19-.21.29-.64.29-.18,0-.64-.02-1.38-.07-1.06-.07-2.04-.1-2.97-.1-1.57,0-3.07.03-4.5.1-.18.01-.36.02-.54.02-.54,0-.81-.1-.81-.29,0-.22.15-.34.44-.34,1.43,0,2.14-.44,2.14-1.33,0-.93-1.65-3.55-4.96-7.86-.36.34-1.26,1.55-2.71,3.65-1.44,2.1-2.17,3.42-2.17,3.96,0,.38.27.72.82,1.01.54.29,1.24.47,2.08.54.42.03.62.14.62.33,0,.21-.2.31-.59.31l-.62-.02-3.44-.08c-2.02,0-3.41.04-4.16.12-.47,0-.71-.11-.71-.33s.17-.31.52-.31c.76,0,1.46-.14,2.1-.42.63-.28,1.17-.67,1.6-1.16s1.39-1.78,2.87-3.88c1.48-2.1,2.51-3.6,3.08-4.51-3.87-5.65-6.24-8.83-7.14-9.56-.89-.72-1.91-1.12-3.04-1.19-.3-.02-.46-.13-.46-.33s.28-.3.84-.3h8.87c.43,0,.68.02.77.06.08.04.13.13.13.26,0,.11-.05.19-.15.24s-.47.09-1.11.13c-.38.03-.71.15-.98.36s-.4.45-.4.72c0,.33.54,1.32,1.62,2.97,1.08,1.65,2.08,3.03,3.02,4.13Z"/>
    <path class="cls-3" d="m319.6,20.24c.3-.3.5-.62.61-.94.09-.27.22-.4.39-.4.09,0,.19.06.3.17.08.4.19,1.22.34,2.44l.4,3.17c0,.2-.12.3-.37.3-.13,0-.25-.11-.35-.34-.6-1.47-1.48-2.7-2.65-3.67-1.17-.97-2.44-1.45-3.83-1.45s-2.38.41-3.08,1.23c-.69.82-1.04,1.69-1.04,2.61,0,1.12.38,1.98,1.13,2.58.75.6,2.3,1.27,4.65,2.02,1.73.54,3.03,1.06,3.88,1.57.86.51,1.58,1.21,2.17,2.12s.88,1.89.88,2.93c0,1.78-.74,3.37-2.21,4.77-1.47,1.4-3.28,2.11-5.41,2.11-1.92,0-3.85-.6-5.8-1.8-.38.31-.63.69-.74,1.11-.09.36-.24.54-.44.54-.18,0-.31-.23-.39-.69-.08-.46-.24-2.64-.49-6.54.04-.13.16-.2.35-.2.17,0,.3.12.41.37,1.73,4.35,4.15,6.52,7.25,6.52,1.54,0,2.74-.46,3.62-1.39.87-.93,1.31-1.99,1.31-3.19,0-.83-.23-1.6-.7-2.29-.47-.7-1.08-1.26-1.85-1.69-.77-.43-1.99-.9-3.65-1.43-2.13-.69-3.59-1.33-4.36-1.95-.77-.61-1.33-1.3-1.69-2.07s-.54-1.51-.54-2.23c0-1.49.68-2.82,2.03-3.98,1.35-1.16,3.01-1.74,4.98-1.74.74,0,1.52.12,2.33.35.81.24,1.67.6,2.55,1.08Z"/>
    <path class="cls-3" d="m343.44,19.25c.33,1.26.65,3.02.96,5.29-.05.09-.12.13-.18.13-.08,0-.16-.04-.25-.13-.78-1.25-1.52-2.2-2.23-2.85-.71-.65-1.42-1.11-2.13-1.39-.71-.27-1.94-.41-3.68-.41-1.64,0-2.94.1-3.9.29-.09.11-.14.32-.14.62,0,.08-.01.22-.03.42-.11.9-.17,3.33-.17,7.3,0,.17.01.4.03.71.85.03,1.44.05,1.75.05,1.42,0,2.44-.21,3.08-.63.64-.42,1.19-1.33,1.66-2.73.08-.24.19-.36.33-.36.21,0,.32.16.32.49l-.07.68c-.09.89-.13,1.81-.13,2.75,0,1.53.03,2.91.08,4.14,0,.38-.1.57-.31.57-.15,0-.25-.13-.31-.4-.24-1.33-.73-2.28-1.49-2.87-.75-.58-2.4-.88-4.92-.88-.03.82-.05,2.15-.05,3.98,0,2.37.08,3.88.25,4.52.17.64.57,1.15,1.21,1.53.64.38,1.73.56,3.25.56,4.37,0,7.2-1.51,8.47-4.52.16-.37.32-.56.48-.56.18,0,.27.12.27.37,0,.13-.03.28-.08.44-.07.21-.23,1.01-.49,2.39-.06.29-.27,1.17-.64,2.63l-7.06-.02c-1.01,0-2.5-.04-4.46-.13-1.96-.08-3.7-.13-5.21-.13-1.51,0-2.3-.04-2.37-.09-.07-.06-.1-.12-.1-.19,0-.22.18-.34.56-.34,1.25,0,2.07-.33,2.46-.99.39-.66.59-2.27.59-4.83l-.02-3.45.05-3.23c0-.65-.04-1.88-.11-3.7s-.14-2.85-.2-3.11c-.06-.26-.24-.51-.52-.77-.29-.25-.92-.51-1.9-.77-.29-.08-.44-.2-.44-.37,0-.2.2-.3.59-.3l3.44.19c1.21.06,4.2.08,8.95.08,3.12,0,4.72,0,4.79.02Z"/>
    <path class="cls-3" d="m360.85,29.8c1.56.68,2.64,1.38,3.26,2.12.61.74,1.06,1.88,1.35,3.42.38,2.02.9,3.38,1.57,4.08.67.7,1.55,1.07,2.64,1.11.3.02.45.13.45.33s-.17.3-.52.3c-3.15,0-5.05-.1-5.72-.31-.67-.21-1.17-1.36-1.49-3.45-.3-2.03-.62-3.52-.95-4.46-.33-.94-.86-1.66-1.58-2.16-.72-.5-1.86-.75-3.4-.75-.58,0-1.25.06-1.99.19-.06.71-.08,1.44-.08,2.2,0,2.88.04,4.75.12,5.59.08.85.32,1.46.72,1.85.4.39,1.06.59,2,.61.4.01.61.11.61.29,0,.22-.25.33-.74.33h-8.34c-.48,0-.72-.11-.72-.33,0-.2.19-.29.57-.29.85,0,1.45-.13,1.78-.39.33-.26.59-.66.78-1.2.19-.54.29-1.53.29-2.96l-.03-3.44.02-5.24c0-2.67-.06-4.44-.18-5.3-.12-.86-.33-1.45-.63-1.74-.3-.3-1.01-.53-2.11-.7-.24-.03-.35-.13-.35-.29,0-.18.24-.27.71-.27l9.98-.22c2.75,0,4.75.53,5.99,1.58,1.24,1.06,1.86,2.35,1.86,3.87,0,.97-.25,1.85-.75,2.64s-1.09,1.38-1.78,1.73c-.69.36-1.79.77-3.3,1.23Zm-6.39-.43c2.16-.04,3.78-.2,4.85-.46,1.08-.26,2-.83,2.76-1.7.76-.88,1.14-1.92,1.14-3.12,0-1.27-.42-2.38-1.26-3.32s-2.19-1.42-4.04-1.42c-1.01,0-2.13.13-3.35.4-.13,3.09-.2,5.55-.2,7.38,0,.63.04,1.37.12,2.22Z"/>
    <path class="cls-3" d="m380.24,41.48h-.99c-.53-1.7-1.36-4.01-2.49-6.94l-3.19-8.21c-.99-2.54-1.68-4.12-2.06-4.75s-.77-1.06-1.14-1.28c-.37-.22-.89-.36-1.57-.42-.28-.02-.42-.12-.42-.3,0-.21.14-.32.42-.32h8.83c.55,0,.83.1.83.29,0,.25-.18.37-.54.37-1.48,0-2.23.64-2.23,1.9,0,.3.07.79.2,1.45.13.66.37,1.48.7,2.44.33.97,1.04,2.95,2.14,5.94,1.09,2.99,1.79,4.83,2.1,5.52l3.61-9.99c1.03-2.83,1.55-4.61,1.55-5.34,0-1.18-.73-1.83-2.19-1.96-.29-.02-.44-.13-.44-.32,0-.12.05-.2.16-.24.11-.04.42-.06.94-.06h5.63c.51,0,.81.01.92.04.11.03.16.11.16.24,0,.2-.22.34-.66.4-.84.12-1.47.43-1.9.92-.42.49-.83,1.07-1.21,1.75-.39.68-1.42,3.39-3.11,8.12-.6,1.66-1.94,5.25-4.04,10.75Z"/>
    <path class="cls-3" d="m393.69,18.87l3.07.07,4.71-.07c.56,0,.84.11.84.34,0,.17-.15.28-.46.32-1.25.16-2.03.61-2.33,1.35-.31.74-.46,3.48-.46,8.23,0,1.74.04,3.7.14,5.88.09,2.18.19,3.48.3,3.91.11.43.33.78.64,1.04.31.27.9.46,1.75.57.28.03.42.14.42.32,0,.2-.13.3-.39.3l-4.19-.03-3.56.05c-.39,0-.59-.11-.59-.34s.16-.35.47-.35c1.04-.02,1.66-.37,1.84-1.05.18-.67.27-2.83.27-6.46s-.03-6.34-.09-8.51-.24-3.49-.55-3.98c-.3-.48-.88-.79-1.72-.91-.31-.06-.47-.19-.47-.39s.12-.3.35-.3Z"/>
    <path class="cls-3" d="m423.07,20.44c.62-.55.97-.92,1.06-1.11.11-.27.28-.4.49-.4.22,0,.35.2.37.61l.37,5.88c0,.34-.01.54-.04.62-.03.07-.11.11-.24.11-.18,0-.37-.24-.57-.73-.74-1.79-1.78-3.26-3.1-4.4-1.34-1.13-2.79-1.7-4.35-1.7-1.37,0-2.63.44-3.78,1.32-1.15.88-2.04,2.14-2.67,3.78s-.95,3.39-.95,5.27c0,3.19.88,5.78,2.64,7.78,1.76,1.99,3.72,2.99,5.89,2.99,1.47,0,2.83-.47,4.06-1.4s2.17-2.01,2.8-3.24c.17-.34.34-.51.52-.51.25,0,.37.13.37.4,0,.33-.43,1.04-1.28,2.14-.85,1.1-1.97,1.99-3.36,2.68-1.39.69-2.88,1.03-4.48,1.03-1.88,0-3.66-.48-5.35-1.43-1.69-.96-3.03-2.28-4.02-3.96-.99-1.69-1.48-3.66-1.48-5.93s.48-4.23,1.44-6.02c.96-1.79,2.31-3.17,4.06-4.16s3.54-1.48,5.4-1.48c.99,0,2,.15,3.04.46s2.09.78,3.17,1.41Z"/>
    <path class="cls-3" d="m445.84,19.25c.33,1.26.65,3.02.96,5.29-.05.09-.12.13-.18.13-.08,0-.16-.04-.25-.13-.78-1.25-1.52-2.2-2.23-2.85-.71-.65-1.42-1.11-2.13-1.39-.71-.27-1.94-.41-3.68-.41-1.64,0-2.94.1-3.9.29-.09.11-.14.32-.14.62,0,.08-.01.22-.03.42-.11.9-.17,3.33-.17,7.3,0,.17.01.4.03.71.85.03,1.44.05,1.75.05,1.42,0,2.44-.21,3.08-.63.64-.42,1.19-1.33,1.66-2.73.08-.24.19-.36.33-.36.21,0,.32.16.32.49l-.07.68c-.09.89-.13,1.81-.13,2.75,0,1.53.03,2.91.08,4.14,0,.38-.1.57-.31.57-.15,0-.25-.13-.31-.4-.24-1.33-.73-2.28-1.49-2.87-.75-.58-2.4-.88-4.92-.88-.03.82-.05,2.15-.05,3.98,0,2.37.08,3.88.25,4.52.17.64.57,1.15,1.21,1.53.64.38,1.73.56,3.25.56,4.37,0,7.2-1.51,8.47-4.52.16-.37.32-.56.48-.56.18,0,.27.12.27.37,0,.13-.03.28-.08.44-.07.21-.23,1.01-.49,2.39-.06.29-.27,1.17-.64,2.63l-7.06-.02c-1.01,0-2.5-.04-4.46-.13-1.96-.08-3.7-.13-5.21-.13-1.51,0-2.3-.04-2.37-.09-.07-.06-.1-.12-.1-.19,0-.22.18-.34.56-.34,1.25,0,2.07-.33,2.46-.99.39-.66.59-2.27.59-4.83l-.02-3.45.05-3.23c0-.65-.04-1.88-.11-3.7s-.14-2.85-.2-3.11c-.06-.26-.24-.51-.52-.77-.29-.25-.92-.51-1.9-.77-.29-.08-.44-.2-.44-.37,0-.2.2-.3.59-.3l3.44.19c1.21.06,4.2.08,8.95.08,3.12,0,4.72,0,4.79.02Z"/>
  </g>
  <g>
    <path class="cls-2" d="m97.51,61.78v-3.74l.25.66-4.27-6.99h1.14l3.75,6.14h-.6l3.75-6.14h1.06l-4.27,6.99.24-.66v3.74h-1.05Z"/>
    <path class="cls-2" d="m106.59,61.85c-.74,0-1.4-.17-1.97-.5-.58-.33-1.03-.79-1.37-1.37-.34-.58-.5-1.25-.5-1.98s.17-1.42.5-2c.33-.58.79-1.03,1.37-1.35s1.23-.49,1.97-.49,1.41.17,1.99.5c.58.33,1.04.78,1.37,1.35.33.57.5,1.23.5,1.99s-.17,1.41-.5,1.99c-.33.58-.79,1.04-1.37,1.37-.58.33-1.25.5-1.98.5Zm0-.91c.55,0,1.03-.12,1.45-.37.42-.24.75-.59,1-1.04.24-.45.37-.96.37-1.55s-.12-1.11-.37-1.55c-.25-.44-.58-.78-1-1.03s-.9-.37-1.44-.37-1.02.12-1.44.37c-.42.24-.76.59-1.01,1.03-.25.44-.37.96-.37,1.55s.12,1.1.37,1.55c.25.45.58.79,1,1.04.42.25.89.37,1.43.37Z"/>
    <path class="cls-2" d="m116,61.85c-.64,0-1.2-.12-1.68-.36-.48-.24-.85-.6-1.12-1.08s-.4-1.08-.4-1.8v-4.39h1.02v4.27c0,.81.2,1.41.6,1.82.4.41.96.61,1.68.61.53,0,.99-.11,1.37-.32.39-.22.69-.53.89-.94.21-.41.31-.91.31-1.48v-3.96h1.02v7.55h-.98v-2.07l.16.37c-.24.56-.61.99-1.11,1.3-.5.31-1.09.47-1.76.47Z"/>
    <path class="cls-2" d="m122.88,61.78v-7.55h.98v2.06l-.1-.36c.21-.58.57-1.01,1.06-1.32.5-.3,1.12-.45,1.86-.45v.99s-.08,0-.12,0-.08,0-.12,0c-.8,0-1.42.24-1.87.73-.45.48-.68,1.17-.68,2.06v3.85h-1.02Z"/>
    <path class="cls-2" d="m135.28,61.78v-9.15h-3.54v-.92h8.14v.92h-3.54v9.15h-1.06Z"/>
    <path class="cls-2" d="m141.5,61.78v-7.55h.98v2.06l-.1-.36c.21-.58.57-1.01,1.06-1.32.5-.3,1.12-.45,1.86-.45v.99s-.08,0-.12,0-.08,0-.12,0c-.8,0-1.42.24-1.87.73-.45.48-.68,1.17-.68,2.06v3.85h-1.02Z"/>
    <path class="cls-2" d="m150.73,61.85c-.64,0-1.2-.12-1.68-.36-.48-.24-.85-.6-1.12-1.08s-.4-1.08-.4-1.8v-4.39h1.02v4.27c0,.81.2,1.41.6,1.82.4.41.96.61,1.68.61.53,0,.99-.11,1.37-.32.39-.22.69-.53.89-.94.21-.41.31-.91.31-1.48v-3.96h1.02v7.55h-.98v-2.07l.16.37c-.24.56-.61.99-1.11,1.3-.5.31-1.09.47-1.76.47Z"/>
    <path class="cls-2" d="m159.65,61.85c-.62,0-1.21-.09-1.77-.27-.56-.18-.99-.4-1.31-.67l.46-.8c.31.23.7.43,1.18.6s.98.25,1.51.25c.72,0,1.24-.11,1.55-.34.32-.22.47-.52.47-.9,0-.28-.09-.5-.27-.65-.18-.16-.41-.28-.7-.36-.29-.08-.61-.15-.96-.21s-.71-.12-1.06-.2c-.35-.08-.67-.19-.96-.34-.29-.15-.52-.35-.7-.61s-.27-.6-.27-1.04.12-.78.34-1.11c.23-.33.57-.58,1.01-.77.45-.19.99-.28,1.63-.28.49,0,.98.07,1.47.19.49.13.89.3,1.21.51l-.45.82c-.34-.23-.7-.4-1.08-.5s-.77-.15-1.15-.15c-.68,0-1.18.12-1.5.35-.32.24-.48.54-.48.9,0,.29.09.51.27.68s.41.29.71.38c.29.09.61.17.96.22.35.06.7.13,1.05.21.35.08.67.19.96.33.29.14.53.34.71.59s.27.59.27,1c0,.44-.12.82-.37,1.14-.25.32-.6.57-1.06.75-.46.18-1.03.27-1.69.27Z"/>
    <path class="cls-2" d="m163.8,55.08v-.85h4.67v.85h-4.67Zm3.57,6.77c-.71,0-1.26-.19-1.64-.58s-.58-.93-.58-1.63v-7.09h1.02v7.03c0,.44.11.78.34,1.02.23.24.55.36.97.36.45,0,.82-.13,1.12-.39l.36.73c-.2.18-.44.32-.73.4-.28.09-.57.13-.87.13Z"/>
    <path class="cls-2" d="m174.09,61.85c-.79,0-1.48-.17-2.07-.5-.59-.33-1.06-.79-1.39-1.37-.34-.58-.5-1.24-.5-1.99s.16-1.41.48-1.99.76-1.03,1.32-1.36c.56-.33,1.19-.5,1.89-.5s1.34.16,1.89.48.99.77,1.3,1.35.47,1.25.47,2.01c0,.05,0,.1,0,.15s0,.11,0,.17h-6.57v-.76h6.03l-.4.3c0-.55-.12-1.03-.35-1.46-.23-.43-.55-.76-.96-1s-.87-.36-1.4-.36-.98.12-1.39.36-.73.58-.96,1.01-.34.92-.34,1.48v.16c0,.58.13,1.08.38,1.52s.61.78,1.06,1.02c.46.25.98.37,1.56.37.46,0,.89-.08,1.29-.25.4-.16.74-.41,1.03-.75l.58.66c-.34.4-.75.71-1.26.92-.5.21-1.06.32-1.66.32Z"/>
    <path class="cls-2" d="m182.92,61.85c-.72,0-1.36-.16-1.93-.49s-1.02-.78-1.34-1.36-.49-1.25-.49-2.01.16-1.44.49-2.01.77-1.02,1.34-1.34,1.22-.48,1.93-.48c.66,0,1.25.15,1.78.45s.94.73,1.25,1.3.47,1.27.47,2.09-.15,1.51-.46,2.08c-.31.58-.72,1.01-1.24,1.32-.52.3-1.12.45-1.79.45Zm.07-.91c.54,0,1.02-.12,1.45-.37.43-.24.76-.59,1.01-1.04.24-.45.37-.96.37-1.55s-.12-1.11-.37-1.55c-.25-.44-.58-.78-1.01-1.03s-.91-.37-1.45-.37-1,.12-1.42.37c-.42.24-.76.59-1.01,1.03-.25.44-.37.96-.37,1.55s.12,1.1.37,1.55c.25.45.58.79,1.01,1.04.42.25.9.37,1.42.37Zm2.85.83v-2.27l.1-1.52-.14-1.52v-5.35h1.02v10.67h-.98Z"/>
    <path class="cls-2" d="m194.34,61.78v-10.07h3.77c.85,0,1.59.14,2.2.41.61.27,1.09.67,1.42,1.18.33.51.5,1.13.5,1.86s-.17,1.32-.5,1.83c-.33.51-.8.91-1.42,1.19-.61.28-1.35.42-2.2.42h-3.18l.47-.5v3.68h-1.06Zm1.06-3.6l-.47-.52h3.15c1.01,0,1.77-.22,2.29-.65s.78-1.05.78-1.85-.26-1.43-.78-1.87c-.52-.44-1.29-.66-2.29-.66h-3.15l.47-.5v6.05Z"/>
    <path class="cls-2" d="m206.7,61.85c-.57,0-1.06-.09-1.47-.28-.42-.19-.74-.45-.96-.78-.22-.33-.33-.71-.33-1.14,0-.39.09-.75.28-1.07.19-.32.49-.58.92-.78.43-.2,1-.29,1.72-.29h2.6v.76h-2.57c-.73,0-1.23.13-1.52.39-.28.26-.42.58-.42.96,0,.43.17.78.5,1.04.34.26.81.39,1.41.39s1.07-.13,1.49-.4.72-.64.91-1.14l.23.71c-.19.5-.53.9-1,1.19-.47.3-1.07.45-1.79.45Zm2.6-.07v-1.67l-.04-.27v-2.79c0-.64-.18-1.14-.54-1.48-.36-.35-.89-.52-1.6-.52-.49,0-.95.08-1.4.25s-.81.38-1.12.65l-.46-.76c.38-.33.84-.58,1.38-.75s1.1-.27,1.7-.27c.98,0,1.73.24,2.26.73s.8,1.22.8,2.21v4.69h-.98Z"/>
    <path class="cls-2" d="m213.41,61.78v-7.55h.98v2.06l-.1-.36c.21-.58.57-1.01,1.06-1.32.5-.3,1.12-.45,1.86-.45v.99s-.08,0-.12,0-.08,0-.12,0c-.8,0-1.42.24-1.87.73-.45.48-.68,1.17-.68,2.06v3.85h-1.02Z"/>
    <path class="cls-2" d="m218.55,55.08v-.85h4.67v.85h-4.67Zm3.57,6.77c-.71,0-1.26-.19-1.64-.58s-.58-.93-.58-1.63v-7.09h1.02v7.03c0,.44.11.78.34,1.02.23.24.55.36.97.36.45,0,.82-.13,1.12-.39l.36.73c-.2.18-.44.32-.73.4-.28.09-.57.13-.87.13Z"/>
    <path class="cls-2" d="m225.92,61.78v-7.55h.98v2.07l-.16-.39c.24-.55.62-.98,1.15-1.29s1.16-.47,1.88-.47c.61,0,1.15.12,1.62.35.46.24.83.59,1.09,1.07s.4,1.08.4,1.81v4.39h-1.02v-4.29c0-.8-.2-1.4-.6-1.8-.4-.41-.96-.61-1.68-.61-.54,0-1,.11-1.4.32-.4.22-.71.53-.92.93-.22.41-.32.9-.32,1.47v3.97h-1.02Z"/>
    <path class="cls-2" d="m239.19,61.85c-.79,0-1.48-.17-2.07-.5-.59-.33-1.06-.79-1.39-1.37-.34-.58-.5-1.24-.5-1.99s.16-1.41.48-1.99.76-1.03,1.32-1.36c.56-.33,1.19-.5,1.89-.5s1.34.16,1.89.48.99.77,1.3,1.35.47,1.25.47,2.01c0,.05,0,.1,0,.15s0,.11,0,.17h-6.57v-.76h6.03l-.4.3c0-.55-.12-1.03-.35-1.46-.23-.43-.55-.76-.96-1s-.87-.36-1.4-.36-.98.12-1.39.36-.73.58-.96,1.01-.34.92-.34,1.48v.16c0,.58.13,1.08.38,1.52s.61.78,1.06,1.02c.46.25.98.37,1.56.37.46,0,.89-.08,1.29-.25.4-.16.74-.41,1.03-.75l.58.66c-.34.4-.75.71-1.26.92-.5.21-1.06.32-1.66.32Z"/>
    <path class="cls-2" d="m245.02,61.78v-7.55h.98v2.06l-.1-.36c.21-.58.57-1.01,1.06-1.32.5-.3,1.12-.45,1.86-.45v.99s-.08,0-.12,0-.08,0-.12,0c-.8,0-1.42.24-1.87.73-.45.48-.68,1.17-.68,2.06v3.85h-1.02Z"/>
    <path class="cls-2" d="m255.76,52.56c-.21,0-.39-.07-.53-.22-.14-.14-.22-.32-.22-.52s.07-.37.22-.51c.14-.14.32-.21.53-.21s.39.07.53.2c.14.13.22.3.22.5s-.07.39-.21.53c-.14.14-.32.22-.54.22Zm-.52,9.22v-7.55h1.02v7.55h-1.02Z"/>
    <path class="cls-2" d="m259.46,61.78v-7.55h.98v2.07l-.16-.39c.24-.55.62-.98,1.15-1.29s1.16-.47,1.88-.47c.61,0,1.15.12,1.62.35.46.24.83.59,1.09,1.07s.4,1.08.4,1.81v4.39h-1.02v-4.29c0-.8-.2-1.4-.6-1.8-.4-.41-.96-.61-1.68-.61-.54,0-1,.11-1.4.32-.4.22-.71.53-.92.93-.22.41-.32.9-.32,1.47v3.97h-1.02Z"/>
    <path class="cls-2" d="m275.81,61.78v-9.15h-3.54v-.92h8.14v.92h-3.54v9.15h-1.06Z"/>
    <path class="cls-2" d="m283.94,61.85c-.57,0-1.06-.09-1.47-.28-.42-.19-.74-.45-.96-.78-.22-.33-.33-.71-.33-1.14,0-.39.09-.75.28-1.07.19-.32.49-.58.92-.78.43-.2,1-.29,1.72-.29h2.6v.76h-2.57c-.73,0-1.23.13-1.52.39-.28.26-.42.58-.42.96,0,.43.17.78.5,1.04.34.26.81.39,1.41.39s1.07-.13,1.49-.4.72-.64.91-1.14l.23.71c-.19.5-.53.9-1,1.19-.47.3-1.07.45-1.79.45Zm2.6-.07v-1.67l-.04-.27v-2.79c0-.64-.18-1.14-.54-1.48-.36-.35-.89-.52-1.6-.52-.49,0-.95.08-1.4.25s-.81.38-1.12.65l-.46-.76c.38-.33.84-.58,1.38-.75s1.1-.27,1.7-.27c.98,0,1.73.24,2.26.73s.8,1.22.8,2.21v4.69h-.98Z"/>
    <path class="cls-2" d="m289.49,61.78l3.19-4.14v.5s-3.05-3.91-3.05-3.91h1.15l2.49,3.24h-.43s2.49-3.24,2.49-3.24h1.12l-3.06,3.96v-.55s3.24,4.14,3.24,4.14h-1.17l-2.63-3.45.4.06-2.59,3.39h-1.15Z"/>
    <path class="cls-2" d="m310.2,61.94l-5.55-5.71c-.34-.35-.6-.66-.8-.93s-.33-.52-.41-.75c-.08-.24-.11-.49-.11-.76,0-.43.1-.81.31-1.13s.5-.57.88-.75c.38-.18.83-.27,1.35-.27.47,0,.88.08,1.23.24.35.16.62.39.82.68.2.3.29.66.29,1.08,0,.36-.09.71-.27,1.02-.18.32-.47.62-.87.93-.4.3-.95.64-1.64,1.01-.6.34-1.08.64-1.43.92-.35.28-.6.55-.74.81-.14.26-.22.55-.22.87,0,.36.1.68.31.96s.49.48.86.63c.37.15.79.22,1.27.22.67,0,1.27-.14,1.8-.42.53-.28.97-.7,1.33-1.27.36-.57.62-1.27.78-2.13l.82.26c-.18.96-.49,1.76-.94,2.42-.44.65-.99,1.15-1.64,1.48-.65.34-1.39.5-2.21.5-.65,0-1.23-.11-1.74-.32-.51-.22-.91-.52-1.2-.9-.29-.38-.44-.83-.44-1.34,0-.43.1-.83.29-1.19s.5-.71.93-1.06,1-.72,1.7-1.1c.6-.33,1.08-.62,1.42-.87.34-.24.58-.48.73-.7.14-.23.22-.47.22-.73,0-.37-.13-.68-.38-.91s-.62-.34-1.09-.34c-.51,0-.9.13-1.18.38-.28.25-.42.58-.42.99,0,.2.03.39.09.58.06.18.18.38.36.6.18.22.42.5.74.83l5.32,5.48-.59.68Z"/>
    <path class="cls-2" d="m317.07,61.78v-10.07h6.9v.92h-5.84v9.15h-1.06Zm.95-4.27v-.92h5.32v.92h-5.32Z"/>
    <path class="cls-2" d="m326.82,52.56c-.21,0-.39-.07-.53-.22-.14-.14-.22-.32-.22-.52s.07-.37.22-.51c.14-.14.32-.21.53-.21s.39.07.53.2c.14.13.22.3.22.5s-.07.39-.21.53c-.14.14-.32.22-.54.22Zm-.52,9.22v-7.55h1.02v7.55h-1.02Z"/>
    <path class="cls-2" d="m330.52,61.78v-7.55h.98v2.07l-.16-.39c.24-.55.62-.98,1.15-1.29s1.16-.47,1.88-.47c.61,0,1.15.12,1.62.35.46.24.83.59,1.09,1.07s.4,1.08.4,1.81v4.39h-1.02v-4.29c0-.8-.2-1.4-.6-1.8-.4-.41-.96-.61-1.68-.61-.54,0-1,.11-1.4.32-.4.22-.71.53-.92.93-.22.41-.32.9-.32,1.47v3.97h-1.02Z"/>
    <path class="cls-2" d="m342.71,61.85c-.57,0-1.06-.09-1.47-.28-.42-.19-.74-.45-.96-.78-.22-.33-.33-.71-.33-1.14,0-.39.09-.75.28-1.07.19-.32.49-.58.92-.78.43-.2,1-.29,1.72-.29h2.6v.76h-2.57c-.73,0-1.23.13-1.52.39-.28.26-.42.58-.42.96,0,.43.17.78.5,1.04.34.26.81.39,1.41.39s1.07-.13,1.49-.4.72-.64.91-1.14l.23.71c-.19.5-.53.9-1,1.19-.47.3-1.07.45-1.79.45Zm2.6-.07v-1.67l-.04-.27v-2.79c0-.64-.18-1.14-.54-1.48-.36-.35-.89-.52-1.6-.52-.49,0-.95.08-1.4.25s-.81.38-1.12.65l-.46-.76c.38-.33.84-.58,1.38-.75s1.1-.27,1.7-.27c.98,0,1.73.24,2.26.73s.8,1.22.8,2.21v4.69h-.98Z"/>
    <path class="cls-2" d="m349.42,61.78v-7.55h.98v2.07l-.16-.39c.24-.55.62-.98,1.15-1.29s1.16-.47,1.88-.47c.61,0,1.15.12,1.62.35.46.24.83.59,1.09,1.07s.4,1.08.4,1.81v4.39h-1.02v-4.29c0-.8-.2-1.4-.6-1.8-.4-.41-.96-.61-1.68-.61-.54,0-1,.11-1.4.32-.4.22-.71.53-.92.93-.22.41-.32.9-.32,1.47v3.97h-1.02Z"/>
    <path class="cls-2" d="m362.62,61.85c-.75,0-1.42-.17-2.01-.5-.59-.33-1.05-.79-1.39-1.37-.34-.58-.5-1.24-.5-1.99s.17-1.42.5-2c.33-.58.8-1.03,1.39-1.35s1.26-.49,2.01-.49c.64,0,1.22.12,1.74.37.52.25.92.62,1.22,1.12l-.76.52c-.26-.38-.58-.67-.96-.85-.38-.18-.8-.27-1.25-.27-.54,0-1.02.12-1.45.37-.43.24-.77.59-1.02,1.03-.25.44-.37.96-.37,1.55s.12,1.11.37,1.55c.25.44.59.78,1.02,1.03.43.25.92.37,1.45.37.45,0,.87-.09,1.25-.27.38-.18.71-.46.96-.83l.76.52c-.3.49-.7.86-1.22,1.11-.52.25-1.1.38-1.74.38Z"/>
    <path class="cls-2" d="m368.3,52.56c-.21,0-.39-.07-.53-.22-.14-.14-.22-.32-.22-.52s.07-.37.22-.51c.14-.14.32-.21.53-.21s.39.07.53.2c.14.13.22.3.22.5s-.07.39-.21.53c-.14.14-.32.22-.54.22Zm-.52,9.22v-7.55h1.02v7.55h-1.02Z"/>
    <path class="cls-2" d="m374.12,61.85c-.57,0-1.06-.09-1.47-.28-.42-.19-.74-.45-.96-.78-.22-.33-.33-.71-.33-1.14,0-.39.09-.75.28-1.07.19-.32.49-.58.92-.78.43-.2,1-.29,1.72-.29h2.6v.76h-2.57c-.73,0-1.23.13-1.52.39-.28.26-.42.58-.42.96,0,.43.17.78.5,1.04.34.26.81.39,1.41.39s1.07-.13,1.49-.4.72-.64.91-1.14l.23.71c-.19.5-.53.9-1,1.19-.47.3-1.07.45-1.79.45Zm2.6-.07v-1.67l-.04-.27v-2.79c0-.64-.18-1.14-.54-1.48-.36-.35-.89-.52-1.6-.52-.49,0-.95.08-1.4.25s-.81.38-1.12.65l-.46-.76c.38-.33.84-.58,1.38-.75s1.1-.27,1.7-.27c.98,0,1.73.24,2.26.73s.8,1.22.8,2.21v4.69h-.98Z"/>
    <path class="cls-2" d="m380.83,61.78v-10.67h1.02v10.67h-1.02Z"/>
    <path class="cls-2" d="m392.14,61.86c-.75,0-1.46-.12-2.15-.37-.69-.25-1.22-.56-1.59-.94l.42-.82c.35.34.83.63,1.43.87.6.23,1.23.35,1.89.35s1.15-.08,1.55-.24c.4-.16.69-.37.88-.64.19-.27.28-.57.28-.89,0-.39-.11-.71-.34-.95-.23-.24-.52-.43-.88-.57-.36-.14-.77-.26-1.21-.37s-.88-.22-1.32-.34c-.44-.12-.85-.28-1.21-.48s-.67-.47-.89-.8c-.23-.33-.34-.76-.34-1.3,0-.5.13-.96.4-1.37.26-.42.67-.75,1.21-1.01.55-.25,1.25-.38,2.1-.38.57,0,1.13.08,1.68.24.56.16,1.04.38,1.44.65l-.36.85c-.43-.29-.89-.5-1.37-.63-.48-.13-.95-.2-1.4-.2-.6,0-1.1.08-1.5.24-.39.16-.68.38-.87.66-.19.27-.28.58-.28.93,0,.39.11.71.34.95.22.24.52.43.89.56.37.13.77.25,1.21.36.44.11.88.22,1.32.34.44.12.84.29,1.21.48s.67.46.89.78.34.75.34,1.28c0,.49-.13.94-.4,1.36s-.68.75-1.23,1.01c-.55.25-1.26.38-2.12.38Z"/>
    <path class="cls-2" d="m401.55,61.85c-.79,0-1.48-.17-2.07-.5-.59-.33-1.06-.79-1.39-1.37-.34-.58-.5-1.24-.5-1.99s.16-1.41.48-1.99.76-1.03,1.32-1.36c.56-.33,1.19-.5,1.89-.5s1.34.16,1.89.48.99.77,1.3,1.35.47,1.25.47,2.01c0,.05,0,.1,0,.15s0,.11,0,.17h-6.57v-.76h6.03l-.4.3c0-.55-.12-1.03-.35-1.46-.23-.43-.55-.76-.96-1s-.87-.36-1.4-.36-.98.12-1.39.36-.73.58-.96,1.01-.34.92-.34,1.48v.16c0,.58.13,1.08.38,1.52s.61.78,1.06,1.02c.46.25.98.37,1.56.37.46,0,.89-.08,1.29-.25.4-.16.74-.41,1.03-.75l.58.66c-.34.4-.75.71-1.26.92-.5.21-1.06.32-1.66.32Z"/>
    <path class="cls-2" d="m407.38,61.78v-7.55h.98v2.06l-.1-.36c.21-.58.57-1.01,1.06-1.32.5-.3,1.12-.45,1.86-.45v.99s-.08,0-.12,0-.08,0-.12,0c-.8,0-1.42.24-1.87.73-.45.48-.68,1.17-.68,2.06v3.85h-1.02Z"/>
    <path class="cls-2" d="m415.64,61.78l-3.35-7.55h1.06l3.08,7h-.5l3.12-7h1.01l-3.37,7.55h-1.05Z"/>
    <path class="cls-2" d="m422.36,52.56c-.21,0-.39-.07-.53-.22-.14-.14-.22-.32-.22-.52s.07-.37.22-.51c.14-.14.32-.21.53-.21s.39.07.53.2c.14.13.22.3.22.5s-.07.39-.21.53c-.14.14-.32.22-.54.22Zm-.52,9.22v-7.55h1.02v7.55h-1.02Z"/>
    <path class="cls-2" d="m429.19,61.85c-.75,0-1.42-.17-2.01-.5-.59-.33-1.05-.79-1.39-1.37-.34-.58-.5-1.24-.5-1.99s.17-1.42.5-2c.33-.58.8-1.03,1.39-1.35s1.26-.49,2.01-.49c.64,0,1.22.12,1.74.37.52.25.92.62,1.22,1.12l-.76.52c-.26-.38-.58-.67-.96-.85-.38-.18-.8-.27-1.25-.27-.54,0-1.02.12-1.45.37-.43.24-.77.59-1.02,1.03-.25.44-.37.96-.37,1.55s.12,1.11.37,1.55c.25.44.59.78,1.02,1.03.43.25.92.37,1.45.37.45,0,.87-.09,1.25-.27.38-.18.71-.46.96-.83l.76.52c-.3.49-.7.86-1.22,1.11-.52.25-1.1.38-1.74.38Z"/>
    <path class="cls-2" d="m437.56,61.85c-.79,0-1.48-.17-2.07-.5-.59-.33-1.06-.79-1.39-1.37-.34-.58-.5-1.24-.5-1.99s.16-1.41.48-1.99.76-1.03,1.32-1.36c.56-.33,1.19-.5,1.89-.5s1.34.16,1.89.48.99.77,1.3,1.35.47,1.25.47,2.01c0,.05,0,.1,0,.15s0,.11,0,.17h-6.57v-.76h6.03l-.4.3c0-.55-.12-1.03-.35-1.46-.23-.43-.55-.76-.96-1s-.87-.36-1.4-.36-.98.12-1.39.36-.73.58-.96,1.01-.34.92-.34,1.48v.16c0,.58.13,1.08.38,1.52s.61.78,1.06,1.02c.46.25.98.37,1.56.37.46,0,.89-.08,1.29-.25.4-.16.74-.41,1.03-.75l.58.66c-.34.4-.75.71-1.26.92-.5.21-1.06.32-1.66.32Z"/>
    <path class="cls-2" d="m445.42,61.85c-.62,0-1.21-.09-1.77-.27-.56-.18-.99-.4-1.31-.67l.46-.8c.31.23.7.43,1.18.6s.98.25,1.51.25c.72,0,1.24-.11,1.55-.34.32-.22.47-.52.47-.9,0-.28-.09-.5-.27-.65-.18-.16-.41-.28-.7-.36-.29-.08-.61-.15-.96-.21s-.71-.12-1.06-.2c-.35-.08-.67-.19-.96-.34-.29-.15-.52-.35-.7-.61s-.27-.6-.27-1.04.12-.78.34-1.11c.23-.33.57-.58,1.01-.77.45-.19.99-.28,1.63-.28.49,0,.98.07,1.47.19.49.13.89.3,1.21.51l-.45.82c-.34-.23-.7-.4-1.08-.5s-.77-.15-1.15-.15c-.68,0-1.18.12-1.5.35-.32.24-.48.54-.48.9,0,.29.09.51.27.68s.41.29.71.38c.29.09.61.17.96.22.35.06.7.13,1.05.21.35.08.67.19.96.33.29.14.53.34.71.59s.27.59.27,1c0,.44-.12.82-.37,1.14-.25.32-.6.57-1.06.75-.46.18-1.03.27-1.69.27Z"/>
  </g>
</svg>