<?xml version="1.0" encoding="utf-8"?>
<!-- Generator: Adobe Illustrator 27.3.1, SVG Export Plug-In . SVG Version: 6.00 Build 0)  -->
<svg version="1.1" xmlns="http://www.w3.org/2000/svg" xmlns:xlink="http://www.w3.org/1999/xlink" x="0px" y="0px"
	 viewBox="0 0 1951.6 909.7" style="enable-background:new 0 0 1951.6 909.7;" xml:space="preserve">
<style type="text/css">
	.st0{fill:#54B948;}
	.st1{fill:#2B3970;}
	.st2{fill:#51B848;}
	.st3{fill:#707071;}
</style>
<g id="Background">
</g>
<g id="Layer_1">
	<g id="XMLID_3509_">
	</g>
	<g id="XMLID_738_">
	</g>
	<g id="XMLID_2671_">
	</g>
	<g id="XMLID_3387_">
	</g>
	<g id="XMLID_4625_">
	</g>
	<g id="XMLID_1901_">
		<g id="XMLID_1912_">
			<g>
				<path id="XMLID_00000047745101945172886300000018038344665320396704_" class="st0" d="M1118,78.3c0,0,32.4,64.6,89.7,82.5
					c0,0-17.6,9.7-44.9,30.2c7.4,11.2,15.8,21,24.2,29.4c30.6-23.7,64.3-44.7,101.2-61.3c0,0-119.5-34.9-143.5-147.1
					c0,0-141.6,86.7-192.6,235.7C952.1,247.6,1006.8,130.5,1118,78.3z"/>
			</g>
		</g>
		<path id="XMLID_1909_" class="st1" d="M854.7,200v302.5c0,0,0,0,0,0c18.5-29.4,39.1-57.4,61.6-83.6V200H854.7z"/>
		<path id="XMLID_1906_" class="st0" d="M768.7,452.3c23.7,11.6,44.8,23.8,61.6,34.3V254.5h-61.6V452.3z"/>
		<path id="XMLID_1903_" class="st0" d="M682.7,419.7c21.1,5.4,41.9,13,61.6,21.4V287.5h-61.6V419.7z"/>
		<path id="XMLID_1902_" class="st1" d="M618,428.4c0,0,134.1,35.4,247.5,173.2c0,0,127.7-271.1,365.6-335.8
			c0,0-96.2-45.5-101.5-143.4c0,0-131.2,54.2-194.2,173.2c0,0,61.8-91.5,162.7-120.7c0,0,18.7,58.9,64.7,81.6
			c0,0-181,65.3-303.1,271.3C859.9,527.7,727.3,427.5,618,428.4z"/>
	</g>
	<g>
		<path class="st2" d="M71.5,671.2c1.5,3.6,4.3,9.4,8.4,17.3c4.1,7.9,8.2,15.9,12.2,24c4,8.1,8.6,16.7,13.6,25.6
			c4,7.1,6.3,11.2,6.9,12.5c14.7-32.9,25.8-59.3,33.3-79.4c14.1,0,27.1-0.4,39-1.1c1.1-0.1,1.9-0.1,2.5-0.1c2.4,0,3.6,0.9,3.6,2.8
			c0,1.6-0.9,2.5-2.8,2.5c-6.7,0-11.1,2.3-13.1,6.8c-2.1,4.5-3.1,15.6-3.1,33.2l-0.1,43.1c0,8.8,1.2,14.9,3.5,18.5
			c2.3,3.5,6.1,5.4,11.3,5.5c2.5,0.1,3.8,0.9,3.8,2.5c0,0.9-0.5,1.6-1.6,2.2l-24.7-0.2c-7.5,0-17.9,0.3-31,0.9
			c-1.1-0.8-1.7-1.6-1.7-2.5c0-1.3,1.5-2.3,4.5-2.7c3.1-0.5,5.3-1.3,6.7-2.3s2.4-2.8,3.1-5.5c0.7-2.7,1-6.7,1-11.9l0.3-39.3
			c0-20.1,0-31.7,0.1-34.8c-15.9,37-25.8,60.7-29.6,70.9l-8.9,23.8c-1,2.5-2,3.8-3,3.8c-1.1,0-2.3-1.6-3.8-4.7
			c-4.3-9-19.6-38.8-45.8-89.4c-0.3,14.5-0.4,34.2-0.4,58.9c0,13,0.7,21.2,2.2,24.7c1.5,3.4,5.6,5.4,12.3,6c2.2,0.2,3.3,1.1,3.3,2.5
			c0,1.5-0.9,2.3-2.7,2.3c-0.6,0-1.3,0-2.1-0.1c-7-0.5-12.1-0.8-15.1-0.8c-8.3,0-14.6,0.3-18.9,0.9c-0.8,0.1-1.4,0.2-1.8,0.2
			c-2.1,0-3.1-0.8-3.1-2.5c0-0.8,0.2-1.4,0.7-1.7c0.5-0.3,1.8-0.7,4-1.2c5.6-1.1,9.3-3.1,11-6.1c1.7-3,2.6-7.9,2.6-14.7l0.4-50.2
			c0-11.4-0.3-19-0.9-22.7c-0.6-3.7-2-6.5-4.3-8.5c-2.3-2-6-3.5-11.2-4.5c-1.9-0.4-2.9-1.4-2.9-2.9c0-1.6,1.1-2.5,3.2-2.5
			c0.5,0,1.1,0,1.9,0.1C40.5,670.9,52.8,671.2,71.5,671.2z"/>
		<path class="st2" d="M239.4,726c6.4-5.3,13.9-12.7,22.2-22.3c8.4-9.6,13.2-15.4,14.5-17.3s2-3.5,2-4.7c0-3-2.7-5-8.2-6.2
			c-2.3-0.5-3.5-1.4-3.5-2.9c0-1.8,1.1-2.6,3.3-2.6c0.8,0,1.8,0.1,3,0.2c4.5,0.6,11,1,19.4,1c2.2,0,5.6-0.2,10.3-0.5
			c4.5-0.3,7.4-0.4,9-0.4c2.5,0,3.8,0.9,3.8,2.6c0,1.5-1.2,2.4-3.6,2.7c-3.3,0.4-6.7,1.3-10.1,2.8c-3.4,1.5-7.5,4.1-12.2,8
			c-4.8,3.8-9.7,8.5-14.8,14l-17.3,19.1l5.9-0.2c6.7,0,12.4,1.4,16.9,4.3c4.5,2.9,7.7,6.4,9.6,10.5c1.9,4.1,4.1,11.3,6.5,21.6
			c1.9,7.7,3.4,13,4.6,16.1c1.2,3,3.1,5.7,5.8,7.9c2.6,2.2,5.5,3.4,8.6,3.6c2.6,0.2,4,1,4,2.2c0,1.8-1.3,2.6-3.8,2.6
			c-0.7,0-1.7-0.1-3.1-0.2c-5.1-0.6-10.4-0.9-15.8-0.9c-5.8,0-11.6,0.4-17.3,1.1c-2-3.1-3.5-6.4-4.5-9.9c-1-3.5-2.6-12-4.7-25.4
			c-1.6-9.9-3.8-16.6-6.5-20c-2.8-3.4-5.9-5.1-9.4-5.1c-4.2,0-9,2.7-14.6,8l-0.2,22.7c0,10.5,0.6,17,1.8,19.6
			c1.2,2.6,4.4,4.2,9.6,4.8c2.8,0.4,4.1,1.1,4.1,2.3c0,2.1-1.2,3.1-3.7,3.1c-1.2,0-2.9-0.1-5.2-0.4c-5.9-0.6-13-1-21.1-1
			c-5.3,0-11.3,0.4-18.1,1.1c-2.3,0.2-4,0.4-5.1,0.4c-2,0-3-1-3-2.9c0-0.9,0.3-1.6,1-1.9c0.6-0.4,2.1-0.6,4.5-0.9
			c2.8-0.4,4.8-1.1,6.1-2.2c1.3-1.1,2.2-3.1,2.7-5.8c0.6-2.7,1-9.3,1.3-19.7c0.3-10.4,0.5-22,0.5-34.6c0-12.8-0.2-21.8-0.5-27.1
			c-0.3-5.3-1-9.2-2-11.6c-1-2.5-2.1-4.1-3.3-4.7c-1.2-0.7-3.6-1.2-7.3-1.5c-1.9-0.1-2.8-0.9-2.8-2.5c0-1.8,1.5-2.7,4.4-2.7
			c2.1,0,5.3,0.2,9.5,0.5c5.2,0.5,9.5,0.7,12.8,0.7c2.1,0,7.9-0.2,17.5-0.7c2.8-0.1,5-0.2,6.5-0.2c2.2,0,3.3,0.8,3.3,2.4
			c0,1.6-1.1,2.6-3.4,2.8c-3.9,0.4-6.5,1.3-7.6,2.8c-1.2,1.5-1.8,3.9-1.9,7.1C239.6,688.6,239.5,702.1,239.4,726z"/>
		<path class="st2" d="M412.8,732.5l-0.1,33.4c0,7,1,11.6,3,13.7c2,2.1,5,3.2,9.1,3.3c2.7,0.1,4.4,0.3,5.1,0.7
			c0.7,0.4,1.1,1.1,1.1,2.2c0,1.5-1.7,2.3-5.1,2.3c-1.5,0-5.1-0.2-10.6-0.5c-7.5-0.4-12.7-0.6-15.7-0.6c-3.3,0-7.8,0.2-13.5,0.6
			c-4.7,0.4-8.2,0.5-10.4,0.5c-1.9,0-2.8-0.8-2.8-2.5c0-1.3,1.6-2.2,4.8-2.6c3.2-0.5,5.5-1.3,6.9-2.5c1.3-1.2,2.3-3.3,2.9-6.3
			c0.6-3,1-11.1,1-24.2c0.1-13.1,0.1-24.6,0.1-34.6l-0.1-27.7c0-3.7-0.9-6.7-2.7-9c-1.8-2.3-5-3.4-9.6-3.4c-2.1,0-3.1-0.8-3.1-2.5
			c0-1.9,1.8-2.9,5.4-2.9l2.3,0.1c3.3,0.2,7.1,0.3,11.4,0.3l35.9-0.5c18.2,0,30.8,2.7,38,8.2c7.2,5.4,10.8,13,10.8,22.7
			c0,9.7-3.9,17.5-11.6,23.4c-7.7,5.9-20.3,8.8-37.7,8.8C423.4,732.8,418.5,732.7,412.8,732.5z M412.8,726.2
			c3.3,0.3,5.9,0.4,7.7,0.4c9.3,0,16.3-2.8,20.9-8.4c4.6-5.6,6.9-12.3,6.9-20.1c0-7.4-2.1-12.9-6.4-16.6c-4.2-3.7-9.5-5.5-15.7-5.5
			c-3.2,0-7.7,0.5-13.5,1.5V726.2z"/>
		<path class="st2" d="M553.1,727.8c7.9,1.1,14.4,3.5,19.5,7.2c5.1,3.7,9,11,11.5,21.9c2.5,10.2,5.1,17,7.8,20.2
			c2.8,3.3,6.6,5,11.6,5.3c2.8,0.2,4.1,1.1,4.1,2.6c0,1.7-2.2,2.5-6.7,2.5l-33.8-0.9c-3.5-3.5-5.9-9.8-7.2-18.8
			c-1.6-11.6-3.3-19.7-5.1-24.5c-1.8-4.8-4.4-8.2-7.9-10.2c-3.5-2.1-7.6-3.1-12.2-3.1c-1.3,0-3.2,0.1-5.5,0.3
			c0,20.6,0.1,33.3,0.2,38.1c0.1,4.8,1.1,8.2,2.9,10.3c1.8,2.1,5.1,3.2,10,3.5c2.6,0.2,4,1.1,4,2.6s-1.1,2.4-3.4,2.4l-27-0.7
			c-3.6,0-8.3,0.1-14,0.4c-5.2,0.3-8.5,0.4-9.9,0.4c-2.4,0-3.6-0.8-3.6-2.5c0-1.6,1.1-2.5,3.2-2.5c3.3,0,6.3-0.8,9.1-2.5
			c2.8-1.6,4.2-8.6,4.2-20.8l-0.1-16.3l0.1-31.6c0-16.3-0.7-26.2-2.2-29.8c-1.4-3.6-5.3-5.5-11.6-5.6c-2.5-0.1-3.7-0.9-3.7-2.5
			c0-1.7,1.6-2.5,4.9-2.5c16.5,0,30.5-0.4,42-1.1c5.1-0.4,9.7-0.5,13.8-0.5c13.3,0,23.7,2.7,31.3,8c7.6,5.3,11.3,12.2,11.3,20.8
			c0,5.7-1.8,10.9-5.4,15.5c-3.6,4.6-8,8-13.4,10.2C566.6,725.8,560.4,727.2,553.1,727.8z M529.2,724.1c1.5,0.1,2.7,0.1,3.4,0.1
			c5.1,0,10.2-1,15.4-2.9c5.2-1.9,8.8-5,11-9.1c2.1-4.2,3.2-8.7,3.2-13.4c0-7.3-2.2-13-6.5-17.1c-4.3-4.1-9.9-6.2-16.8-6.2
			c-2.9,0-6.1,0.5-9.8,1.6V724.1z"/>
		<path class="st2" d="M673.6,669.2c11.8,0,22.2,2.4,31.1,7.1s16,11.6,21.4,20.6c5.4,9,8,18.8,8,29.4c0,16.4-6.1,31-18.4,43.6
			c-12.2,12.7-27.4,19-45.5,19c-16.5,0-30.5-5.2-42.2-15.7c-11.7-10.5-17.5-24.7-17.5-42.5c0-16.9,6-31.3,18.1-43.4
			C640.7,675.2,655.7,669.2,673.6,669.2z M704.3,728.9c0-17.8-3-31.1-9.1-40.1c-6-9-13.7-13.4-22.9-13.4c-9.2,0-16.8,4.5-22.9,13.5
			c-6,9-9.1,22.3-9.1,40c0,17,2.9,30.2,8.7,39.6c5.8,9.4,13.5,14.1,23.2,14.1c8.6,0,16.1-4.2,22.5-12.7
			C701.1,761.4,704.3,747.8,704.3,728.9z"/>
		<path class="st2" d="M748.7,669.9c30.4,0.8,52.9,1.2,67.5,1.2c11.1,0,23.3-0.3,36.6-1c4.8-0.2,8.6-0.4,11.7-0.4
			c1.2,0,3.1,0,5.9,0.1c0.4,2.4,0.9,7.4,1.6,14.9l1.3,13.9c0,2.3-1,3.4-2.9,3.4c-1.5,0-2.9-1.4-4.2-4.2c-2.2-4.7-5.1-8.8-8.6-12.2
			c-3.5-3.4-7.5-5.7-12.1-6.8c-4.6-1.1-12.2-1.7-22.8-1.7c-0.9,9-1.4,20.2-1.4,33.7c0,13.8,0.3,27.1,0.8,39.9
			c0.5,12.8,1.2,20.5,1.9,23.2s2.1,4.6,3.9,5.8s6.1,2.1,12.8,2.5c2.3,0.2,3.4,1,3.4,2.5c0,1.6-1,2.5-3,2.5l-2.5-0.1l-18.2-0.4
			c-14.2,0-22.8,0.1-25.9,0.2l-11.1,0.4c-0.9,0-2.7-0.1-5.5-0.2c-1.4-0.3-2-1-2-2.2c0-1.7,1.1-2.5,3.3-2.5c5.2,0,9.1-1.1,11.8-3.3
			c2.6-2.2,4.3-5.6,4.9-10.3c0.6-4.7,0.9-15,0.9-30.7c0-24.9-0.8-45.2-2.3-60.8c-9.7,0-16.7,0.4-21,1.2c-4.3,0.8-8.5,3-12.4,6.5
			c-4,3.5-7.2,8.1-9.8,13.8c-1,2.2-2.1,3.3-3.4,3.3c-2,0-3-0.9-3-2.6c0-0.5,0.4-4.4,1.1-11.6C746.9,680.6,747.8,674.6,748.7,669.9z"
			/>
		<path class="st2" d="M924.7,667.6h6c7.7,16.8,18.6,43.1,32.8,79.1c6.5,16.5,11,26.5,13.4,30.1s6.4,5.7,11.7,6.4
			c1.8,0.2,2.6,1,2.6,2.3c0,1.8-1.1,2.7-3.4,2.7c-1.2,0-4.4-0.2-9.6-0.6c-6.1-0.5-11.2-0.8-15.4-0.8c-4,0-9.3,0.2-15.8,0.7
			c-4.9,0.4-8.1,0.5-9.6,0.5c-2.7,0-4-0.8-4-2.5c0-1.3,0.9-2,2.8-2.2c7.2-0.6,10.8-3.5,10.8-8.5c0-2.4-1.1-6.7-3.2-13
			c-2.1-6.3-4.4-12-6.7-17.1c-3.8-0.1-6.8-0.1-8.9-0.1c-11.8,0-21,0-27.6,0.1c-5.1,13.8-7.6,23-7.6,27.5c0,3.2,1.3,5.7,3.8,7.5
			c2.5,1.8,5.2,2.8,8.2,3.1c2.2,0.2,3.3,1.1,3.3,2.7s-1.2,2.4-3.6,2.4c-0.9,0-3.4-0.1-7.4-0.4c-5.2-0.4-8.9-0.6-11.2-0.6
			c-4.6,0-9,0.3-13.2,0.9c-1.1,0.2-1.9,0.3-2.6,0.3c-2.2,0-3.3-0.9-3.3-2.6c0-1.3,0.7-2.1,2.1-2.5c3.5-1,6.3-2.2,8.3-3.7
			c2-1.5,4.1-4.3,6.5-8.4c2.3-4.1,5.1-10.8,8.3-19.9C899.4,730.2,910.3,702.5,924.7,667.6z M918.5,698.3l-15.3,39.3l31.1-0.4
			c-1.6-4.6-4.2-10.9-7.5-18.9C923,709.5,920.3,702.9,918.5,698.3z"/>
		<path class="st2" d="M1062.9,712.7c12.6-15.6,18.9-25.3,18.9-29.2c0-2-0.7-3.6-2-4.8c-1.3-1.2-4-2.2-8-3.1
			c-1.9-0.4-2.8-1.3-2.8-2.7c0-1.5,1.1-2.3,3.3-2.3c1.3,0,3.6,0.1,6.8,0.4c4.4,0.3,8.1,0.5,11.2,0.5c4.2,0,9.8-0.2,16.6-0.6
			c3.2-0.2,5.2-0.3,6-0.3c2.8,0,4.2,0.9,4.2,2.5c0,1.5-1.1,2.3-3.3,2.5c-4,0.1-8,1.3-12.1,3.6c-4.1,2.3-7.8,5.4-11.3,9.4
			c-3.4,4-11.2,13.8-23.4,29.5c6.6,11.4,14.3,23.5,23.1,36.1s15.4,20.5,19.7,23.5c4.3,3,8.1,4.7,11.4,5.1c2.8,0.3,4.1,1.2,4.1,2.6
			c0,1.6-1.4,2.5-4.2,2.5l-32.4-1.1c-4.2,0-8.4,0.1-12.6,0.4c-3.6,0.2-6,0.3-7,0.4c-2.5,0-4.1,0-4.7,0.1c-0.9,0.1-1.6,0.2-2,0.2
			c-1.7,0-2.5-0.8-2.5-2.5c0-1.5,1-2.3,3-2.5c6.4-0.6,9.7-2.8,9.7-6.8c0-4.5-7.2-16.9-21.6-37.1c-15.4,19.8-23.1,31.6-23.1,35.4
			c0,4.1,4.7,6.9,14.1,8.2c2.1,0.3,3.1,1.1,3.1,2.3c0,1.8-1.1,2.6-3.2,2.6c-1,0-3.7-0.1-8-0.4c-5.2-0.3-10.4-0.5-15.6-0.5
			c-4.9,0-8.8,0.1-11.5,0.4c-3.5,0.4-5.9,0.5-7,0.5c-3.4,0-5.1-0.9-5.1-2.7c0-1.3,0.9-2.1,2.7-2.4c5.3-0.7,9.6-2,12.7-3.8
			c3.1-1.8,7-5.5,11.5-11.1c4.5-5.6,13-17,25.5-34.3c-14.8-24.2-25.1-39.7-30.9-46.3c-5.8-6.7-11.9-10.5-18.3-11.4
			c-2.3-0.4-3.5-1.3-3.5-2.7c0-1.7,1.1-2.5,3.3-2.5c1.1,0,2.6,0.1,4.6,0.3c3.7,0.4,11.9,0.6,24.3,0.6c5.2,0,11.5-0.2,18.9-0.5
			c4.5-0.2,7-0.4,7.7-0.4c3.2,0,4.7,0.8,4.7,2.5c0,1.6-1.3,2.5-3.8,2.6c-1.5,0.1-3.4,0.6-5.8,1.5c-2.4,0.9-3.6,2.2-3.6,4
			c0,1.6,1.2,4.6,3.7,8.8C1050.8,694.1,1055.6,701.8,1062.9,712.7z"/>
		<path class="st2" d="M1247.3,674.7c0.8-0.8,1.5-1.9,2.3-3.5c0.9-1.8,1.9-2.8,3-2.8c1.6,0,2.5,1.3,2.9,3.9l3.1,24.1l0.4,2.9
			c0,1.6-0.8,2.4-2.4,2.4c-1.2,0-2-0.3-2.5-0.8c-0.5-0.6-1.5-2.4-3-5.4c-2.5-5.2-6.7-9.9-12.5-14.1c-5.8-4.2-11.6-6.3-17.5-6.3
			c-5.7,0-10.4,1.6-14.2,4.9s-5.7,7.4-5.7,12.3c0,3.9,1.8,7.5,5.3,10.7s10.3,6.2,20.3,9c15.7,4.5,26.3,10,31.9,16.5
			c5.5,6.6,8.3,13.9,8.3,21.9c0,8.2-2,15.1-6.1,20.6s-8.9,9.9-14.5,13.1c-5.6,3.2-12.8,4.8-21.6,4.8c-5,0-10.1-0.7-15.5-2.2
			c-5.3-1.4-10.8-3.6-16.5-6.5c-1.2,1.3-2.2,3.1-3,5.3c-0.9,2.4-2.1,3.6-3.5,3.6c-1.5,0-2.3-1.6-2.6-4.7l-2.5-31.9
			c-0.1-1.4-0.2-2.3-0.2-2.6c0-1.7,0.9-2.5,2.6-2.5c1.3,0,2.5,1.5,3.7,4.4c3.6,8.8,8.4,16.1,14.6,22c6.1,5.9,13.2,8.8,21.4,8.8
			c6.9,0,12.5-2.1,16.7-6.2c4.2-4.1,6.4-8.8,6.4-14c0-5.2-2-9.6-5.9-13.2c-3.9-3.6-11-7-21.2-10.3c-9.9-3.2-17.3-6.3-22.1-9.2
			c-4.8-2.9-8.7-7-11.6-12.1c-2.9-5.1-4.4-10.3-4.4-15.6c0-9.2,3.6-17,10.7-23.5c7.1-6.4,16.8-9.7,29-9.7
			C1227.5,668.8,1236.3,670.8,1247.3,674.7z"/>
		<path class="st2" d="M1373.7,671.6c1.9,9.1,3.7,18.3,5.5,27.4c0,1.7-0.8,2.5-2.5,2.5c-0.9,0-2-0.8-3.1-2.5
			c-6-8.8-11.6-14.5-16.6-17.3c-5-2.8-12.2-4.2-21.7-4.2c-5.3,0-10.4,0.4-15.3,1.3c-1.1,10.4-1.6,21.7-1.6,34
			c0,2.1,0.1,5.6,0.2,10.6l6.7,0.1c4.2,0,7.7-0.6,10.8-1.7c3-1.1,5.6-3.6,7.7-7.3c2.1-3.7,3.3-6.1,3.6-7.2c0.5-1.9,1.4-2.8,2.7-2.8
			c1.6,0,2.5,0.7,2.5,2.1c0,0.4-0.1,0.9-0.2,1.4c-0.7,3.6-1.1,14.5-1.1,32.6c0,2.5,0.2,4.8,0.7,6.9c0.1,0.6,0.2,1.1,0.2,1.5
			c0,1.6-0.9,2.5-2.8,2.5c-1.3,0-2.3-1.6-3-4.7c-1.2-5.4-3.9-9.6-8-12.4c-4.2-2.8-10.8-4.3-19.8-4.4c-0.3,9.8-0.4,16.3-0.4,19.4
			c0,13.4,0.2,21.3,0.6,23.8c0.4,2.5,1.9,4.6,4.5,6.1c2.6,1.6,6.9,2.3,13.1,2.3c22.3,0,37-7.1,44.1-21.3c1-2,2.1-3,3.2-3
			c1.7,0,2.5,0.7,2.5,2.1c0,0.9-0.2,2.1-0.5,3.6l-5.7,25.2l-31.8-0.1c-9-0.1-17.3-0.3-25.1-0.6c-7.8-0.4-13.8-0.5-18.2-0.5
			c-4.9,0-12.3,0.3-22.2,0.9c-1.2,0.1-2.1,0.2-2.7,0.2c-2.8,0-4.1-0.9-4.1-2.7c0-1.6,1.1-2.5,3.3-2.5c5.7,0,9.5-1.5,11.5-4.6
			c2-3.1,2.9-9.4,2.9-18.8l0.5-45.2c0-15.5-0.2-25-0.6-28.5c-0.4-3.5-1.4-5.9-3-7.2c-1.6-1.3-4.7-2.2-9.2-2.9
			c-1.9-0.2-2.8-1.1-2.8-2.5c0-1.8,1.1-2.6,3.3-2.6l21.2,0.6L1373.7,671.6z"/>
		<path class="st2" d="M1459.6,727.8c7.9,1.1,14.4,3.5,19.5,7.2c5.1,3.7,9,11,11.5,21.9c2.5,10.2,5.1,17,7.8,20.2
			c2.8,3.3,6.6,5,11.6,5.3c2.8,0.2,4.1,1.1,4.1,2.6c0,1.7-2.2,2.5-6.7,2.5l-33.8-0.9c-3.5-3.5-5.9-9.8-7.2-18.8
			c-1.6-11.6-3.3-19.7-5.1-24.5c-1.8-4.8-4.4-8.2-7.9-10.2c-3.5-2.1-7.6-3.1-12.2-3.1c-1.3,0-3.2,0.1-5.5,0.3
			c0,20.6,0.1,33.3,0.2,38.1c0.1,4.8,1.1,8.2,2.9,10.3c1.8,2.1,5.1,3.2,10,3.5c2.6,0.2,4,1.1,4,2.6s-1.1,2.4-3.4,2.4l-27-0.7
			c-3.6,0-8.3,0.1-14,0.4c-5.2,0.3-8.5,0.4-9.9,0.4c-2.4,0-3.6-0.8-3.6-2.5c0-1.6,1.1-2.5,3.2-2.5c3.3,0,6.3-0.8,9.1-2.5
			c2.8-1.6,4.2-8.6,4.2-20.8l-0.1-16.3l0.1-31.6c0-16.3-0.7-26.2-2.2-29.8c-1.4-3.6-5.3-5.5-11.6-5.6c-2.5-0.1-3.7-0.9-3.7-2.5
			c0-1.7,1.6-2.5,4.9-2.5c16.5,0,30.5-0.4,42-1.1c5.1-0.4,9.7-0.5,13.8-0.5c13.3,0,23.7,2.7,31.3,8c7.6,5.3,11.3,12.2,11.3,20.8
			c0,5.7-1.8,10.9-5.4,15.5c-3.6,4.6-8,8-13.4,10.2C1473.1,725.8,1466.8,727.2,1459.6,727.8z M1435.7,724.1c1.5,0.1,2.7,0.1,3.4,0.1
			c5.1,0,10.2-1,15.4-2.9c5.2-1.9,8.8-5,11-9.1c2.1-4.2,3.2-8.7,3.2-13.4c0-7.3-2.2-13-6.5-17.1c-4.3-4.1-9.9-6.2-16.8-6.2
			c-2.9,0-6.1,0.5-9.8,1.6V724.1z"/>
		<path class="st2" d="M1571.7,789.3h-7l-16.2-42.2c-4-10.7-9.2-23.7-15.4-39.1c-6.2-15.4-10.2-24.3-12-26.8
			c-1.8-2.5-3.4-4.1-4.8-4.9c-1.4-0.8-3.6-1.3-6.6-1.6c-1.9-0.1-2.8-0.8-2.8-2.4c0-1.7,1.1-2.5,3.3-2.5l23.7,0.9
			c8.3,0,16.4-0.3,24.5-0.9c2.2-0.1,3.6-0.2,4-0.2c2.8,0,4.2,1,4.2,2.9c0,1.3-1.3,2.1-3.8,2.4c-6.7,0.8-10,3.8-10,9.1
			c0,9,7.7,33.3,23.2,72.8c5.1-12.9,10.1-26,14.7-39.2l8.6-24.2c1-2.9,1.5-5.7,1.5-8.4c0-2.8-1-5.1-2.9-7c-1.9-1.9-4.1-2.9-6.5-3
			c-2.7-0.1-4-0.9-4-2.4c0-1.9,1.1-2.8,3.3-2.8c1.6,0,3.7,0.1,6.2,0.3c5,0.4,9.5,0.6,13.4,0.6c4.2,0,7.9-0.2,11.1-0.6
			c2.4-0.3,4.4-0.4,6-0.4c2.1,0,3.1,0.9,3.1,2.7c0,1.5-1,2.4-3.1,2.7c-3.1,0.5-5.8,1.5-8,3.2c-2.2,1.7-4.4,4.4-6.5,8
			c-2.1,3.7-5.7,12-10.7,25l-15.6,40.3C1579.3,771.3,1574.3,783.9,1571.7,789.3z"/>
		<path class="st2" d="M1641.1,670.5c2.1,0,6.3,0.2,12.7,0.5c4.9,0.3,8.7,0.4,11.6,0.4l27-0.7c2.3,0,3.4,0.8,3.4,2.4
			c0,1.4-1,2.2-3.1,2.5c-4.6,0.5-7.7,1.3-9.3,2.6c-1.6,1.3-2.8,4.2-3.6,8.7c-0.8,4.6-1.3,14.9-1.3,31c0,18.5,0.3,32.8,0.9,42.9
			c0.6,10.1,1.8,16.3,3.6,18.7c1.8,2.4,4.8,3.6,8.9,3.6c2.9,0,4.3,0.8,4.3,2.3c0,2.1-1.6,3.1-4.7,3.1c-0.9,0-2.2,0-3.9-0.1
			c-11-0.8-18.5-1.1-22.6-1.1c-8.8,0-15.4,0.3-19.6,0.8c-2.2,0.2-3.8,0.4-4.7,0.4c-2.2,0-3.3-0.8-3.3-2.5c0-1.3,0.9-2.1,2.7-2.4
			c5-0.6,8.3-2,10.1-4.2c1.7-2.1,2.8-7.3,3.1-15.4c0.4-8.1,0.5-20.8,0.5-38c0-18.1-0.3-30.2-1-36.3c-0.6-6.1-1.7-9.9-3.2-11.3
			s-4.4-2.3-8.6-2.6c-2.2-0.2-3.3-1.1-3.3-2.7C1637.9,671.3,1639,670.5,1641.1,670.5z"/>
		<path class="st2" d="M1801,678.8c1.2-1.5,2.5-3.2,3.9-5.1c1.6-2.3,2.9-3.4,4-3.4c1.2,0,1.9,0.3,2.3,0.9c0.4,0.6,0.6,2.4,0.9,5.4
			l1.8,27.4l0.2,3.5c0,2.3-0.9,3.5-2.8,3.5c-1.2,0-2.2-1-3-2.9c-2.4-6.2-6.7-13.1-13-20.7c-6.2-7.6-14.1-11.4-23.6-11.4
			c-7,0-13,2-17.7,6.1c-4.8,4.1-8.5,9.7-11.2,16.7c-2.7,7.1-4,15.6-4,25.5c0,16.9,3.7,30.4,11.2,40.4c7.4,10,16.7,15,27.8,15
			c12,0,23-7.3,33.1-21.8c1.2-1.8,2.4-2.6,3.5-2.6c1.9,0,2.8,0.9,2.8,2.8c0,3.9-4.6,10-13.8,18.5s-20.8,12.7-34.7,12.7
			c-18.4,0-32.9-5.7-43.6-17.1c-10.7-11.4-16-25.3-16-41.9c0-16.5,5.4-30.9,16.1-43c10.8-12.2,24.4-18.2,40.8-18.2
			C1777.3,669,1789,672.3,1801,678.8z"/>
		<path class="st2" d="M1922.2,671.6c1.9,9.1,3.7,18.3,5.5,27.4c0,1.7-0.8,2.5-2.5,2.5c-0.9,0-2-0.8-3.1-2.5
			c-6-8.8-11.6-14.5-16.6-17.3c-5-2.8-12.2-4.2-21.7-4.2c-5.3,0-10.4,0.4-15.3,1.3c-1.1,10.4-1.6,21.7-1.6,34
			c0,2.1,0.1,5.6,0.2,10.6l6.7,0.1c4.2,0,7.7-0.6,10.8-1.7c3-1.1,5.6-3.6,7.7-7.3c2.1-3.7,3.3-6.1,3.6-7.2c0.5-1.9,1.4-2.8,2.7-2.8
			c1.6,0,2.5,0.7,2.5,2.1c0,0.4-0.1,0.9-0.2,1.4c-0.7,3.6-1.1,14.5-1.1,32.6c0,2.5,0.2,4.8,0.7,6.9c0.1,0.6,0.2,1.1,0.2,1.5
			c0,1.6-0.9,2.5-2.8,2.5c-1.3,0-2.3-1.6-3-4.7c-1.2-5.4-3.9-9.6-8-12.4c-4.2-2.8-10.8-4.3-19.8-4.4c-0.3,9.8-0.4,16.3-0.4,19.4
			c0,13.4,0.2,21.3,0.6,23.8c0.4,2.5,1.9,4.6,4.5,6.1c2.6,1.6,6.9,2.3,13.1,2.3c22.3,0,37-7.1,44.1-21.3c1-2,2.1-3,3.2-3
			c1.7,0,2.5,0.7,2.5,2.1c0,0.9-0.2,2.1-0.5,3.6l-5.7,25.2l-31.8-0.1c-9-0.1-17.3-0.3-25.1-0.6c-7.8-0.4-13.8-0.5-18.2-0.5
			c-4.9,0-12.3,0.3-22.2,0.9c-1.2,0.1-2.1,0.2-2.7,0.2c-2.8,0-4.1-0.9-4.1-2.7c0-1.6,1.1-2.5,3.3-2.5c5.7,0,9.5-1.5,11.5-4.6
			c2-3.1,2.9-9.4,2.9-18.8l0.5-45.2c0-15.5-0.2-25-0.6-28.5c-0.4-3.5-1.4-5.9-3-7.2c-1.6-1.3-4.7-2.2-9.2-2.9
			c-1.9-0.2-2.8-1.1-2.8-2.5c0-1.8,1.1-2.6,3.3-2.6l21.2,0.6L1922.2,671.6z"/>
	</g>
	<g>
		<path class="st3" d="M44.5,894.6v-49H25.6v-4.9h43.6v4.9H50.2v49H44.5z"/>
		<path class="st3" d="M113.9,895c-3,0-5.7-0.5-7.9-1.5s-3.9-2.4-5.1-4.2c-1.2-1.8-1.8-3.8-1.8-6.1c0-2.1,0.5-4,1.5-5.7
			c1-1.7,2.6-3.1,4.9-4.2c2.3-1.1,5.4-1.6,9.2-1.6h13.9v4.1h-13.8c-3.9,0-6.6,0.7-8.1,2.1c-1.5,1.4-2.3,3.1-2.3,5.2
			c0,2.3,0.9,4.2,2.7,5.5c1.8,1.4,4.3,2.1,7.5,2.1c3.1,0,5.7-0.7,8-2.1c2.2-1.4,3.9-3.5,4.9-6.1l1.2,3.8c-1,2.7-2.8,4.8-5.4,6.4
			C121,894.2,117.8,895,113.9,895z M127.8,894.6v-8.9l-0.2-1.5v-14.9c0-3.4-1-6.1-2.9-7.9c-1.9-1.8-4.8-2.8-8.6-2.8
			c-2.6,0-5.1,0.4-7.5,1.3c-2.4,0.9-4.4,2-6,3.5l-2.5-4.1c2.1-1.7,4.5-3.1,7.4-4c2.9-0.9,5.9-1.4,9.1-1.4c5.2,0,9.3,1.3,12.1,3.9
			c2.8,2.6,4.3,6.5,4.3,11.8v25.1H127.8z"/>
		<path class="st3" d="M169.5,894.6l17.1-22.2l-0.1,2.7l-16.2-20.9h6.2l13.3,17.3l-2.3-0.1l13.3-17.2h6l-16.4,21.2l0.1-2.9
			l17.2,22.2h-6.2l-14.1-18.5l2.2,0.3l-13.9,18.2H169.5z"/>
		<path class="st3" d="M303.8,895c-3,0-5.7-0.5-7.9-1.5s-3.9-2.4-5.1-4.2c-1.2-1.8-1.8-3.8-1.8-6.1c0-2.1,0.5-4,1.5-5.7
			c1-1.7,2.6-3.1,4.9-4.2c2.3-1.1,5.4-1.6,9.2-1.6h13.9v4.1h-13.8c-3.9,0-6.6,0.7-8.1,2.1c-1.5,1.4-2.3,3.1-2.3,5.2
			c0,2.3,0.9,4.2,2.7,5.5c1.8,1.4,4.3,2.1,7.5,2.1c3.1,0,5.7-0.7,8-2.1c2.2-1.4,3.9-3.5,4.9-6.1l1.2,3.8c-1,2.7-2.8,4.8-5.4,6.4
			C310.8,894.2,307.6,895,303.8,895z M317.7,894.6v-8.9l-0.2-1.5v-14.9c0-3.4-1-6.1-2.9-7.9c-1.9-1.8-4.8-2.8-8.6-2.8
			c-2.6,0-5.1,0.4-7.5,1.3c-2.4,0.9-4.4,2-6,3.5l-2.5-4.1c2.1-1.7,4.5-3.1,7.4-4c2.9-0.9,5.9-1.4,9.1-1.4c5.2,0,9.3,1.3,12.1,3.9
			c2.8,2.6,4.3,6.5,4.3,11.8v25.1H317.7z"/>
		<path class="st3" d="M365.5,894.6v-40.4h5.2v11.1l-0.8-2.1c1.3-2.9,3.3-5.2,6.2-6.9c2.8-1.7,6.2-2.5,10.1-2.5
			c3.3,0,6.2,0.6,8.7,1.9c2.5,1.3,4.4,3.2,5.9,5.7c1.4,2.6,2.1,5.8,2.1,9.7v23.5h-5.5v-22.9c0-4.3-1.1-7.5-3.2-9.7
			c-2.1-2.2-5.1-3.3-9-3.3c-2.9,0-5.4,0.6-7.5,1.7c-2.1,1.2-3.8,2.8-4.9,5c-1.2,2.2-1.7,4.8-1.7,7.9v21.3H365.5z"/>
		<path class="st3" d="M461.4,895c-3.8,0-7.3-0.9-10.4-2.6c-3.1-1.7-5.5-4.2-7.2-7.3c-1.7-3.1-2.6-6.7-2.6-10.7
			c0-4.1,0.9-7.7,2.6-10.8c1.7-3.1,4.1-5.5,7.2-7.2c3.1-1.7,6.5-2.6,10.4-2.6c3.5,0,6.7,0.8,9.5,2.4c2.8,1.6,5,3.9,6.7,7
			c1.7,3.1,2.5,6.8,2.5,11.2c0,4.4-0.8,8.1-2.5,11.2c-1.6,3.1-3.9,5.4-6.7,7C468.2,894.2,465,895,461.4,895z M461.8,890.1
			c2.9,0,5.5-0.7,7.7-2c2.3-1.3,4.1-3.2,5.4-5.5s2-5.1,2-8.3c0-3.2-0.7-6-2-8.3c-1.3-2.4-3.1-4.2-5.4-5.5c-2.3-1.3-4.9-2-7.7-2
			c-2.8,0-5.4,0.7-7.6,2c-2.3,1.3-4.1,3.1-5.4,5.5c-1.3,2.4-2,5.1-2,8.3c0,3.1,0.7,5.9,2,8.3c1.3,2.4,3.1,4.2,5.4,5.5
			C456.4,889.5,459,890.1,461.8,890.1z M477,894.6v-12.2l0.5-8.2l-0.8-8.2v-28.6h5.5v57.1H477z"/>
		<path class="st3" d="M573.1,894.6v-57.1h5.5v28.6l-0.8,8.2l0.5,8.2v12.2H573.1z M594,895c-3.5,0-6.7-0.8-9.5-2.4
			c-2.8-1.6-5.1-4-6.7-7c-1.6-3.1-2.5-6.8-2.5-11.2c0-4.4,0.8-8.1,2.5-11.2c1.7-3.1,3.9-5.4,6.7-7c2.8-1.6,6-2.4,9.5-2.4
			c3.8,0,7.3,0.9,10.4,2.6c3.1,1.7,5.5,4.1,7.2,7.2c1.7,3.1,2.6,6.7,2.6,10.8c0,4.1-0.9,7.6-2.6,10.7c-1.7,3.1-4.1,5.5-7.2,7.3
			C601.3,894.1,597.9,895,594,895z M593.6,890.1c2.9,0,5.4-0.7,7.7-2c2.3-1.3,4.1-3.2,5.4-5.5c1.3-2.4,2-5.1,2-8.3
			c0-3.2-0.7-6-2-8.3c-1.3-2.4-3.1-4.2-5.4-5.5c-2.3-1.3-4.8-2-7.7-2c-2.9,0-5.5,0.7-7.7,2c-2.3,1.3-4.1,3.1-5.4,5.5
			c-1.3,2.4-2,5.1-2,8.3c0,3.1,0.7,5.9,2,8.3s3.1,4.2,5.4,5.5C588.2,889.5,590.7,890.1,593.6,890.1z"/>
		<path class="st3" d="M669.5,895c-4,0-7.5-0.9-10.5-2.7c-3.1-1.8-5.5-4.2-7.3-7.4c-1.8-3.1-2.7-6.7-2.7-10.6
			c0-4.1,0.9-7.6,2.7-10.7c1.8-3.1,4.2-5.5,7.3-7.2c3.1-1.7,6.6-2.6,10.5-2.6c4,0,7.6,0.9,10.7,2.7c3.1,1.8,5.5,4.2,7.3,7.2
			c1.8,3.1,2.7,6.6,2.7,10.7c0,4-0.9,7.6-2.7,10.7c-1.8,3.1-4.2,5.5-7.4,7.3C677,894.1,673.5,895,669.5,895z M669.5,890.1
			c2.9,0,5.5-0.7,7.8-2c2.3-1.3,4-3.2,5.4-5.5s2-5.1,2-8.3c0-3.2-0.7-6-2-8.3c-1.3-2.4-3.1-4.2-5.4-5.5c-2.3-1.3-4.8-2-7.7-2
			c-2.9,0-5.4,0.7-7.7,2c-2.3,1.3-4.1,3.1-5.4,5.5c-1.3,2.4-2,5.1-2,8.3c0,3.1,0.7,5.9,2,8.3c1.3,2.4,3.1,4.2,5.4,5.5
			C664.1,889.5,666.7,890.1,669.5,890.1z"/>
		<path class="st3" d="M745.5,895c-4,0-7.5-0.9-10.5-2.7c-3.1-1.8-5.5-4.2-7.3-7.4c-1.8-3.1-2.7-6.7-2.7-10.6
			c0-4.1,0.9-7.6,2.7-10.7c1.8-3.1,4.2-5.5,7.3-7.2c3.1-1.7,6.6-2.6,10.5-2.6c4,0,7.6,0.9,10.7,2.7c3.1,1.8,5.5,4.2,7.3,7.2
			c1.8,3.1,2.7,6.6,2.7,10.7c0,4-0.9,7.6-2.7,10.7c-1.8,3.1-4.2,5.5-7.4,7.3C753,894.1,749.5,895,745.5,895z M745.5,890.1
			c2.9,0,5.5-0.7,7.8-2c2.3-1.3,4-3.2,5.4-5.5s2-5.1,2-8.3c0-3.2-0.7-6-2-8.3c-1.3-2.4-3.1-4.2-5.4-5.5c-2.3-1.3-4.8-2-7.7-2
			s-5.4,0.7-7.7,2c-2.3,1.3-4.1,3.1-5.4,5.5c-1.3,2.4-2,5.1-2,8.3c0,3.1,0.7,5.9,2,8.3c1.3,2.4,3.1,4.2,5.4,5.5
			C740.1,889.5,742.7,890.1,745.5,890.1z"/>
		<path class="st3" d="M805.1,894.6v-57.1h5.5v57.1H805.1z M809.4,884.1l0.2-7l25.2-22.9h6.7l-17.8,17l-3.1,2.6L809.4,884.1z
			 M836.4,894.6l-16.9-21l3.5-4.2l20,25.3H836.4z"/>
		<path class="st3" d="M878.8,894.6v-57.1h5.5v57.1H878.8z M883.1,884.1l0.2-7l25.2-22.9h6.7l-17.8,17l-3.1,2.6L883.1,884.1z
			 M910.2,894.6l-16.9-21l3.5-4.2l20,25.3H910.2z"/>
		<path class="st3" d="M968.2,895c-4.2,0-7.9-0.9-11.1-2.7c-3.2-1.8-5.7-4.2-7.5-7.3c-1.8-3.1-2.7-6.7-2.7-10.7s0.9-7.5,2.6-10.6
			s4.1-5.5,7.1-7.3c3-1.8,6.4-2.7,10.1-2.7c3.8,0,7.2,0.9,10.1,2.6c3,1.7,5.3,4.1,7,7.2c1.7,3.1,2.5,6.7,2.5,10.7c0,0.3,0,0.5,0,0.8
			c0,0.3,0,0.6,0,0.9h-35.2v-4.1h32.3l-2.2,1.6c0-2.9-0.6-5.5-1.9-7.8c-1.3-2.3-3-4.1-5.1-5.4c-2.2-1.3-4.6-1.9-7.5-1.9
			c-2.8,0-5.3,0.6-7.5,1.9c-2.2,1.3-3.9,3.1-5.2,5.4c-1.2,2.3-1.8,5-1.8,7.9v0.8c0,3.1,0.7,5.8,2,8.1c1.4,2.3,3.3,4.2,5.7,5.5
			c2.4,1.3,5.2,2,8.4,2c2.5,0,4.8-0.4,6.9-1.3c2.1-0.9,4-2.2,5.5-4l3.1,3.5c-1.8,2.2-4,3.8-6.7,4.9S971.5,895,968.2,895z"/>
		<path class="st3" d="M1042.4,895c-4.2,0-7.9-0.9-11.1-2.7c-3.2-1.8-5.7-4.2-7.5-7.3c-1.8-3.1-2.7-6.7-2.7-10.7s0.9-7.5,2.6-10.6
			c1.7-3.1,4.1-5.5,7.1-7.3c3-1.8,6.4-2.7,10.1-2.7c3.8,0,7.2,0.9,10.1,2.6c3,1.7,5.3,4.1,7,7.2c1.7,3.1,2.5,6.7,2.5,10.7
			c0,0.3,0,0.5,0,0.8c0,0.3,0,0.6,0,0.9h-35.2v-4.1h32.3l-2.2,1.6c0-2.9-0.6-5.5-1.9-7.8c-1.3-2.3-3-4.1-5.1-5.4
			c-2.2-1.3-4.6-1.9-7.5-1.9c-2.8,0-5.3,0.6-7.5,1.9c-2.2,1.3-3.9,3.1-5.2,5.4c-1.2,2.3-1.8,5-1.8,7.9v0.8c0,3.1,0.7,5.8,2,8.1
			c1.4,2.3,3.3,4.2,5.7,5.5c2.4,1.3,5.2,2,8.4,2c2.5,0,4.8-0.4,6.9-1.3c2.1-0.9,4-2.2,5.5-4l3.1,3.5c-1.8,2.2-4,3.8-6.7,4.9
			S1045.7,895,1042.4,895z"/>
		<path class="st3" d="M1099.5,909.5v-55.4h5.2v12.2l-0.5,8.1l0.8,8.2v27H1099.5z M1120.4,895c-3.5,0-6.6-0.8-9.5-2.4
			c-2.8-1.6-5.1-4-6.7-7c-1.7-3.1-2.5-6.8-2.5-11.2c0-4.4,0.8-8.1,2.5-11.2c1.6-3.1,3.9-5.4,6.7-7c2.8-1.6,6-2.4,9.5-2.4
			c3.8,0,7.3,0.9,10.4,2.6c3.1,1.7,5.5,4.1,7.2,7.2c1.7,3.1,2.6,6.7,2.6,10.7c0,4.1-0.9,7.7-2.6,10.8c-1.7,3.1-4.1,5.5-7.2,7.2
			C1127.7,894.1,1124.2,895,1120.4,895z M1120,890.1c2.9,0,5.4-0.7,7.7-2c2.3-1.3,4.1-3.2,5.4-5.5c1.3-2.4,2-5.1,2-8.3
			c0-3.1-0.7-5.9-2-8.2c-1.3-2.4-3.1-4.2-5.4-5.5c-2.3-1.3-4.8-2-7.7-2c-2.9,0-5.5,0.7-7.7,2c-2.3,1.3-4.1,3.2-5.4,5.5
			c-1.3,2.4-2,5.1-2,8.2c0,3.1,0.7,5.9,2,8.3s3.1,4.2,5.4,5.5C1114.5,889.5,1117.1,890.1,1120,890.1z"/>
		<path class="st3" d="M1182.2,845.2c-1.1,0-2.1-0.4-2.8-1.2c-0.8-0.8-1.2-1.7-1.2-2.8s0.4-2,1.2-2.7c0.8-0.7,1.7-1.1,2.8-1.1
			s2.1,0.4,2.8,1.1c0.8,0.7,1.2,1.6,1.2,2.7c0,1.1-0.4,2.1-1.1,2.8C1184.3,844.8,1183.4,845.2,1182.2,845.2z M1179.4,894.6v-40.4
			h5.5v40.4H1179.4z"/>
		<path class="st3" d="M1227.9,894.6v-40.4h5.2v11.1l-0.8-2.1c1.3-2.9,3.3-5.2,6.2-6.9c2.8-1.7,6.2-2.5,10.1-2.5
			c3.3,0,6.2,0.6,8.7,1.9c2.5,1.3,4.4,3.2,5.9,5.7c1.4,2.6,2.1,5.8,2.1,9.7v23.5h-5.5v-22.9c0-4.3-1.1-7.5-3.2-9.7
			c-2.1-2.2-5.1-3.3-9-3.3c-2.9,0-5.4,0.6-7.5,1.7c-2.1,1.2-3.8,2.8-4.9,5c-1.2,2.2-1.7,4.8-1.7,7.9v21.3H1227.9z"/>
		<path class="st3" d="M1323.9,893c-3.9,0-7.3-0.8-10.4-2.5c-3.1-1.7-5.5-4-7.3-7c-1.8-3-2.7-6.4-2.7-10.2s0.9-7.2,2.7-10.2
			c1.8-3,4.2-5.2,7.3-6.9c3.1-1.6,6.5-2.5,10.4-2.5c3.6,0,6.8,0.7,9.7,2.2c2.9,1.5,5.2,3.7,6.9,6.6c1.7,2.9,2.5,6.5,2.5,10.7
			c0,4.2-0.8,7.8-2.5,10.7c-1.7,2.9-4,5.2-6.9,6.7C1330.7,892.3,1327.5,893,1323.9,893z M1324.9,909.9c-3.7,0-7.2-0.5-10.6-1.6
			s-6.1-2.6-8.2-4.6l2.8-4.2c1.9,1.7,4.2,3,7,4s5.8,1.5,8.9,1.5c5.1,0,8.9-1.2,11.3-3.6c2.4-2.4,3.6-6.1,3.6-11.1v-10.1l0.8-6.9
			l-0.5-6.9v-12.2h5.2v35.5c0,7-1.7,12.1-5.1,15.4C1336.6,908.3,1331.6,909.9,1324.9,909.9z M1324.4,888.2c3,0,5.6-0.6,7.9-1.9
			c2.3-1.3,4.1-3,5.5-5.2c1.3-2.2,2-4.8,2-7.7s-0.7-5.5-2-7.7c-1.3-2.2-3.2-3.9-5.5-5.2c-2.3-1.3-5-1.9-7.9-1.9
			c-2.9,0-5.6,0.6-7.9,1.9c-2.3,1.3-4.2,3-5.5,5.2c-1.3,2.2-2,4.8-2,7.7s0.7,5.5,2,7.7c1.3,2.2,3.1,4,5.5,5.2
			C1318.9,887.6,1321.5,888.2,1324.4,888.2z"/>
		<path class="st3" d="M1446.9,895c-3.3,0-6.5-0.5-9.5-1.4c-3-0.9-5.3-2.1-7-3.6l2.5-4.3c1.6,1.2,3.7,2.3,6.3,3.2
			c2.6,0.9,5.3,1.3,8.1,1.3c3.8,0,6.6-0.6,8.3-1.8c1.7-1.2,2.5-2.8,2.5-4.8c0-1.5-0.5-2.7-1.4-3.5c-1-0.8-2.2-1.5-3.7-1.9
			c-1.5-0.4-3.3-0.8-5.2-1.1c-1.9-0.3-3.8-0.7-5.7-1.1c-1.9-0.4-3.6-1-5.1-1.8c-1.5-0.8-2.8-1.9-3.7-3.3c-1-1.4-1.4-3.2-1.4-5.5
			c0-2.2,0.6-4.2,1.8-5.9c1.2-1.7,3-3.1,5.4-4.1c2.4-1,5.3-1.5,8.7-1.5c2.6,0,5.2,0.3,7.9,1s4.8,1.6,6.5,2.7l-2.4,4.4
			c-1.8-1.2-3.7-2.1-5.8-2.7c-2.1-0.5-4.1-0.8-6.2-0.8c-3.6,0-6.3,0.6-8,1.9c-1.7,1.3-2.6,2.9-2.6,4.8c0,1.5,0.5,2.7,1.4,3.6
			c0.9,0.9,2.2,1.6,3.8,2c1.6,0.5,3.3,0.9,5.2,1.2c1.9,0.3,3.7,0.7,5.6,1.1c1.9,0.4,3.6,1,5.2,1.8c1.6,0.7,2.8,1.8,3.8,3.2
			c0.9,1.4,1.4,3.1,1.4,5.4c0,2.4-0.7,4.4-2,6.1c-1.3,1.7-3.2,3.1-5.7,4C1453.4,894.5,1450.4,895,1446.9,895z"/>
		<path class="st3" d="M1518.5,895c-4.2,0-7.9-0.9-11.1-2.7c-3.2-1.8-5.7-4.2-7.5-7.3c-1.8-3.1-2.7-6.7-2.7-10.7s0.9-7.5,2.6-10.6
			s4.1-5.5,7.1-7.3c3-1.8,6.4-2.7,10.1-2.7c3.8,0,7.2,0.9,10.1,2.6c3,1.7,5.3,4.1,7,7.2c1.7,3.1,2.5,6.7,2.5,10.7c0,0.3,0,0.5,0,0.8
			c0,0.3,0,0.6,0,0.9h-35.2v-4.1h32.3l-2.2,1.6c0-2.9-0.6-5.5-1.9-7.8c-1.3-2.3-3-4.1-5.1-5.4c-2.2-1.3-4.6-1.9-7.5-1.9
			c-2.8,0-5.3,0.6-7.5,1.9c-2.2,1.3-3.9,3.1-5.2,5.4c-1.2,2.3-1.8,5-1.8,7.9v0.8c0,3.1,0.7,5.8,2,8.1c1.4,2.3,3.3,4.2,5.7,5.5
			c2.4,1.3,5.2,2,8.4,2c2.5,0,4.8-0.4,6.9-1.3c2.1-0.9,4-2.2,5.5-4l3.1,3.5c-1.8,2.2-4,3.8-6.7,4.9S1521.7,895,1518.5,895z"/>
		<path class="st3" d="M1575.5,894.6v-40.4h5.2v11l-0.5-1.9c1.1-3.1,3-5.4,5.7-7s6-2.4,9.9-2.4v5.3c-0.2,0-0.4,0-0.6,0
			c-0.2,0-0.4,0-0.6,0c-4.3,0-7.6,1.3-10,3.9c-2.4,2.6-3.6,6.3-3.6,11v20.6H1575.5z"/>
		<path class="st3" d="M1645.7,894.6l-17.9-40.4h5.7l16.5,37.5h-2.7l16.7-37.5h5.4l-18,40.4H1645.7z"/>
		<path class="st3" d="M1707.5,845.2c-1.1,0-2.1-0.4-2.8-1.2c-0.8-0.8-1.2-1.7-1.2-2.8s0.4-2,1.2-2.7c0.8-0.7,1.7-1.1,2.8-1.1
			s2.1,0.4,2.8,1.1c0.8,0.7,1.2,1.6,1.2,2.7c0,1.1-0.4,2.1-1.1,2.8C1709.6,844.8,1708.7,845.2,1707.5,845.2z M1704.7,894.6v-40.4
			h5.5v40.4H1704.7z"/>
		<path class="st3" d="M1769.9,895c-4,0-7.6-0.9-10.7-2.7c-3.2-1.8-5.6-4.2-7.4-7.3c-1.8-3.1-2.7-6.7-2.7-10.7
			c0-4.1,0.9-7.6,2.7-10.7c1.8-3.1,4.3-5.5,7.4-7.2c3.2-1.7,6.7-2.6,10.7-2.6c3.4,0,6.5,0.7,9.3,2c2.8,1.3,5,3.3,6.5,6l-4.1,2.8
			c-1.4-2.1-3.1-3.6-5.2-4.5c-2.1-1-4.3-1.5-6.7-1.5c-2.9,0-5.5,0.7-7.8,2c-2.3,1.3-4.1,3.1-5.5,5.5c-1.3,2.4-2,5.1-2,8.3
			c0,3.2,0.7,6,2,8.3c1.3,2.4,3.2,4.2,5.5,5.5c2.3,1.3,4.9,2,7.8,2c2.4,0,4.6-0.5,6.7-1.5c2.1-1,3.8-2.5,5.2-4.5l4.1,2.8
			c-1.6,2.6-3.8,4.6-6.5,6C1776.5,894.3,1773.4,895,1769.9,895z"/>
		<path class="st3" d="M1840.6,895c-4.2,0-7.9-0.9-11.1-2.7c-3.2-1.8-5.7-4.2-7.5-7.3c-1.8-3.1-2.7-6.7-2.7-10.7s0.9-7.5,2.6-10.6
			s4.1-5.5,7.1-7.3c3-1.8,6.4-2.7,10.1-2.7c3.8,0,7.2,0.9,10.1,2.6c3,1.7,5.3,4.1,7,7.2c1.7,3.1,2.5,6.7,2.5,10.7c0,0.3,0,0.5,0,0.8
			c0,0.3,0,0.6,0,0.9h-35.2v-4.1h32.3l-2.2,1.6c0-2.9-0.6-5.5-1.9-7.8c-1.3-2.3-3-4.1-5.1-5.4c-2.2-1.3-4.6-1.9-7.5-1.9
			c-2.8,0-5.3,0.6-7.5,1.9c-2.2,1.3-3.9,3.1-5.2,5.4c-1.2,2.3-1.8,5-1.8,7.9v0.8c0,3.1,0.7,5.8,2,8.1c1.4,2.3,3.3,4.2,5.7,5.5
			c2.4,1.3,5.2,2,8.4,2c2.5,0,4.8-0.4,6.9-1.3c2.1-0.9,4-2.2,5.5-4l3.1,3.5c-1.8,2.2-4,3.8-6.7,4.9S1843.9,895,1840.6,895z"/>
		<path class="st3" d="M1908.5,895c-3.3,0-6.5-0.5-9.5-1.4c-3-0.9-5.3-2.1-7-3.6l2.5-4.3c1.6,1.2,3.7,2.3,6.3,3.2
			c2.6,0.9,5.3,1.3,8.1,1.3c3.8,0,6.6-0.6,8.3-1.8c1.7-1.2,2.5-2.8,2.5-4.8c0-1.5-0.5-2.7-1.4-3.5c-1-0.8-2.2-1.5-3.7-1.9
			c-1.5-0.4-3.3-0.8-5.2-1.1c-1.9-0.3-3.8-0.7-5.7-1.1c-1.9-0.4-3.6-1-5.1-1.8c-1.5-0.8-2.8-1.9-3.7-3.3c-1-1.4-1.4-3.2-1.4-5.5
			c0-2.2,0.6-4.2,1.8-5.9c1.2-1.7,3-3.1,5.4-4.1c2.4-1,5.3-1.5,8.7-1.5c2.6,0,5.2,0.3,7.9,1s4.8,1.6,6.5,2.7l-2.4,4.4
			c-1.8-1.2-3.7-2.1-5.8-2.7c-2.1-0.5-4.1-0.8-6.2-0.8c-3.6,0-6.3,0.6-8,1.9c-1.7,1.3-2.6,2.9-2.6,4.8c0,1.5,0.5,2.7,1.4,3.6
			c0.9,0.9,2.2,1.6,3.8,2c1.6,0.5,3.3,0.9,5.2,1.2c1.9,0.3,3.7,0.7,5.6,1.1c1.9,0.4,3.6,1,5.2,1.8c1.6,0.7,2.8,1.8,3.8,3.2
			c0.9,1.4,1.4,3.1,1.4,5.4c0,2.4-0.7,4.4-2,6.1c-1.3,1.7-3.2,3.1-5.7,4C1915.1,894.5,1912.1,895,1908.5,895z"/>
	</g>
</g>
</svg>
