<svg width="52" height="50" viewBox="0 0 52 50" fill="none" xmlns="http://www.w3.org/2000/svg">
<path d="M30.8949 7.59656L41.6153 7.41565L29.6133 0.357422L30.8949 7.59656Z" fill="#1C2539"/>
<path d="M14.6622 49.7611L0.75 43.0449L13.5755 42.8285L14.6622 49.7611Z" fill="#1C2539"/>
<path d="M29.609 0.355657L50.8909 40.9877L44.6559 49.2484L23.6302 8.42573L29.609 0.355657Z" fill="url(#paint0_linear_73_7)"/>
<path d="M21.2631 12.2477L35.8248 41.2431L29.8494 49.4994L14.9001 20.0207L21.2631 12.2477Z" fill="url(#paint1_linear_73_7)"/>
<path d="M12.1717 24.7678L20.779 42.1963L14.6645 49.7582L6.17912 32.0861L12.1717 24.7678Z" fill="url(#paint2_linear_73_7)"/>
<defs>
<linearGradient id="paint0_linear_73_7" x1="36.8187" y1="0.233983" x2="37.6479" y2="49.3667" gradientUnits="userSpaceOnUse">
<stop offset="0.244792" stop-color="#DF0A0A"/>
<stop offset="1" stop-color="#9C0000"/>
</linearGradient>
<linearGradient id="paint1_linear_73_7" x1="25.0293" y1="12.1842" x2="25.6601" y2="49.5701" gradientUnits="userSpaceOnUse">
<stop offset="0.244792" stop-color="#DF0A0A"/>
<stop offset="1" stop-color="#9C0000"/>
</linearGradient>
<linearGradient id="paint2_linear_73_7" x1="13.2553" y1="24.7495" x2="13.6775" y2="49.7748" gradientUnits="userSpaceOnUse">
<stop offset="0.244792" stop-color="#DF0A0A"/>
<stop offset="1" stop-color="#9C0000"/>
</linearGradient>
</defs>
</svg>
